<svg width="151" height="50" viewBox="0 0 151 50" fill="none" xmlns="http://www.w3.org/2000/svg">
<g clip-path="url(#clip0_1714_2231)">
<path d="M28.4948 26.1414C31.166 28.683 32.8569 31.7726 33.5382 35.4155C33.6713 36.1295 33.756 36.8574 33.7888 37.5819C33.8494 38.863 33.6142 40.1113 33.2287 41.3268C31.8611 45.6561 28.2216 48.922 23.8111 49.7831C23.0711 49.9266 22.3242 50.0009 21.5704 49.9992C18.6035 49.9957 15.6366 50.0009 12.6715 49.9992C6.93308 49.9923 1.96062 45.8514 0.729609 40.2756C0.532509 39.3886 0.428772 38.493 0.428772 37.5836C0.428772 29.2656 0.421856 20.9494 0.43223 12.6314C0.439146 6.81348 4.4676 1.7736 10.0988 0.504549C10.965 0.309178 11.8433 0.208899 12.732 0.208899C15.6574 0.208899 18.5827 0.203712 21.5081 0.210627C27.3554 0.224459 32.4109 4.42235 33.5693 10.2161C33.82 11.4713 33.8459 12.7351 33.7698 14.0059C33.6868 15.3822 33.4759 16.7342 33.099 18.0586C32.2605 21.003 30.6992 23.4927 28.4758 25.5674C28.3859 25.6521 28.2942 25.7351 28.1784 25.844C28.3012 25.9581 28.3997 26.048 28.4983 26.1414" fill="#2DBDB6"/>
<path d="M16.9313 11.3086C12.0211 11.3086 8.04102 14.7423 8.04102 18.9782C8.04102 23.2141 12.0211 26.6478 16.9313 26.6478C21.8415 26.6478 25.8215 23.2141 25.8215 18.9782C25.8215 14.7423 21.8415 11.3086 16.9313 11.3086ZM14.2894 23.0741C13.7569 23.0741 13.3264 22.5329 13.3264 21.8638C13.3264 21.1947 13.7569 20.6536 14.2894 20.6536C14.822 20.6536 15.2525 21.1947 15.2525 21.8638C15.2525 22.5329 14.822 23.0741 14.2894 23.0741ZM19.5731 23.0741C19.0406 23.0741 18.6101 22.5329 18.6101 21.8638C18.6101 21.1947 19.0406 20.6536 19.5731 20.6536C20.1056 20.6536 20.5361 21.1947 20.5361 21.8638C20.5361 22.5329 20.1039 23.0741 19.5731 23.0741Z" fill="white"/>
<path d="M22.4968 13.2397C22.4968 13.2397 22.4121 11.9465 22.763 11.5332C22.7717 11.5332 22.7786 11.535 22.7873 11.535C23.2264 11.535 23.5705 11.1235 23.4529 10.6653C23.3941 10.4336 23.2039 10.2452 22.974 10.1847C22.5141 10.0636 22.1009 10.4077 22.1009 10.8468C22.1009 11.0803 22.2184 11.2877 22.3982 11.4105C22.3325 11.9102 22.1164 12.3787 21.7706 12.7487C21.7706 12.7487 22.3187 13.0997 22.4968 13.238V13.2397Z" fill="white"/>
<path d="M11.3659 13.2397C11.3659 13.2397 11.4506 11.9465 11.0996 11.5332C11.091 11.5332 11.084 11.535 11.0754 11.535C10.6362 11.535 10.2922 11.1235 10.4098 10.6653C10.4685 10.4336 10.6587 10.2452 10.8887 10.1847C11.3486 10.0636 11.7618 10.4077 11.7618 10.8468C11.7618 11.0803 11.6442 11.2877 11.4644 11.4105C11.5301 11.9102 11.7462 12.3787 12.092 12.7487C12.092 12.7487 11.5439 13.0997 11.3659 13.238V13.2397Z" fill="white"/>
<path d="M25.2182 30.1133C25.213 31.7765 24.8551 33.4173 24.1704 34.9232C24.7963 36.6228 25.5138 35.7946 25.5138 35.7946C26.4768 34.0691 25.2182 30.1133 25.2182 30.1133Z" fill="white"/>
<path d="M23.9404 27.4008C23.6845 26.8596 23.1883 26.4723 22.6022 26.3548C22.1181 26.2579 21.6219 26.3997 21.2018 26.6608C19.3864 27.7915 14.7856 27.9074 12.5553 26.5899C12.1542 26.353 11.6735 26.2614 11.2223 26.3738C10.6759 26.5121 10.2178 26.8873 9.9757 27.3991C8.72049 29.4167 9.42244 35.3989 13.4924 39.3115C14.3776 40.2711 15.6069 40.8347 16.9088 40.8814V40.8849C16.9088 40.8849 16.9243 40.8849 16.933 40.8831C16.9416 40.8831 16.9486 40.8831 16.9572 40.8849V40.8814C18.2608 40.8347 19.4936 40.2711 20.3822 39.3115C24.4971 35.3989 25.2008 29.415 23.9422 27.3991L23.9404 27.4008Z" fill="white"/>
<path d="M8.41447 35.7773C8.41447 35.7773 9.13372 36.647 9.75787 34.9077C9.0732 33.4069 8.71531 31.7713 8.71013 30.1133C8.71013 30.1133 7.45145 34.0553 8.41447 35.779V35.7773Z" fill="white"/>
<path d="M45.7961 23.2066H48.9186C49.8695 23.2066 51.0089 22.5548 51.0089 21.0887C51.0089 20.0565 50.5196 19.1332 49.1087 19.1332H45.7961V23.2066ZM49.0016 25.8415H45.7978V30.565H48.839C50.632 30.565 51.5275 29.6694 51.5275 28.2569C51.5275 26.7095 50.4418 25.8398 49.0033 25.8398M48.5935 34.8546H44.1138C42.9191 34.8546 41.9958 33.959 41.9958 32.8991V17.6671C41.9958 16.5536 42.9727 15.7116 44.1138 15.7116H48.7024C52.7758 15.7116 54.8126 18.3189 54.8126 21.0333C54.8126 22.9334 53.5902 24.1022 51.9615 24.8889C53.6455 25.5684 55.3278 26.789 55.3278 29.1525C55.3278 32.3303 52.7758 34.8546 48.5935 34.8546ZM63.2291 35.0447C59.3735 35.0447 57.3368 32.8455 57.3368 29.9945V25.9487C57.3368 23.0977 59.3735 20.8985 63.2291 20.8985C67.0846 20.8985 69.1213 23.0977 69.1213 25.9487V29.9945C69.1213 32.8455 67.0846 35.0447 63.2291 35.0447ZM63.2291 31.841C64.6416 31.841 65.3747 31.1356 65.3747 29.9945V25.9211C65.3747 24.8076 64.6416 24.1022 63.2291 24.1022C61.8165 24.1022 61.0834 24.8076 61.0834 25.9211V29.9945C61.0834 31.1339 61.8165 31.841 63.2291 31.841ZM75.8573 24.5085V30.482C75.8573 31.4866 76.644 32.1107 77.92 32.1107C79.2772 32.1107 79.929 31.4053 79.929 30.2642V25.2952C79.929 24.3183 79.3861 23.7478 78.0548 23.7478C77.1869 23.7478 76.4261 23.9916 75.8556 24.5085M72.109 30.482V16.9063C72.109 16.0367 72.7867 15.25 73.9831 15.25C75.1796 15.25 75.8573 16.0367 75.8573 16.9063V21.6851C76.7253 21.1959 77.5413 20.9244 78.8173 20.9244C82.2648 20.9244 83.6774 22.8799 83.6774 25.4318V29.9945C83.6774 32.8455 81.7496 35.0447 77.894 35.0447C74.0385 35.0447 72.1107 33.0357 72.1107 30.4838M90.4116 24.5085V30.482C90.4116 31.4866 91.2 32.1107 92.476 32.1107C93.8332 32.1107 94.485 31.4053 94.485 30.2642V25.2952C94.485 24.3183 93.9421 23.7478 92.6108 23.7478C91.7429 23.7478 90.9822 23.9916 90.4116 24.5085ZM86.665 30.482V16.9063C86.665 16.0367 87.3445 15.25 88.5392 15.25C89.7339 15.25 90.4133 16.0367 90.4133 16.9063V21.6851C91.283 21.1959 92.0973 20.9244 93.3733 20.9244C96.8226 20.9244 98.2334 22.8799 98.2334 25.4318V29.9945C98.2334 32.8455 96.3056 35.0447 92.45 35.0447C88.5945 35.0447 86.6667 33.0357 86.6667 30.4838M103.827 35.0447C102.741 35.0447 101.219 34.692 101.219 31.841V16.934C101.219 16.0384 102.034 15.25 103.093 15.25C104.153 15.25 104.968 15.9831 104.968 16.934V31.516C104.968 32.0865 104.995 32.2214 105.376 32.6294C105.647 32.9285 105.865 33.0634 105.865 33.5803C105.865 34.5572 105.104 35.0465 103.828 35.0465M113.846 29.6677C113.14 29.6677 112.542 29.6124 111.755 29.5052V30.4008C111.755 31.324 112.461 31.9223 113.927 31.9223C114.795 31.9223 115.502 31.7044 116.37 31.324C116.479 31.2704 116.723 31.1615 117.184 31.1615C118.488 31.1615 118.868 32.0312 118.868 32.6553C118.868 34.5554 115.393 35.0447 113.656 35.0447C110.072 35.0447 108.007 32.9804 108.007 30.2936V25.7586C108.007 23.0164 110.016 20.9261 113.79 20.9261C117.347 20.9261 119.112 22.8003 119.112 25.5424C119.112 28.2845 117.509 29.6694 113.844 29.6694M115.393 25.3505C115.393 24.2647 114.823 23.8308 113.765 23.8308C112.461 23.8308 111.755 24.5103 111.755 25.596V26.7631C112.625 26.8443 113.439 26.872 113.711 26.872C114.743 26.872 115.395 26.5193 115.395 25.3522M133.208 31.0803L132.313 33.8224C132.041 34.609 131.172 35.0983 130.52 35.0983C129.46 35.0983 128.564 34.3929 128.564 33.3607C128.564 33.2242 128.592 32.8991 128.646 32.7643L133.94 17.3144C134.292 16.2562 134.835 15.4678 136.139 15.4678C137.442 15.4678 137.985 16.2286 138.366 17.3144L143.66 32.7643C143.713 32.8991 143.741 33.2259 143.741 33.3607C143.741 34.3929 142.899 35.0983 141.786 35.0983C141.08 35.0983 140.211 34.5831 139.939 33.8224L138.988 31.0803H133.205H133.208ZM138.013 27.9854L136.628 23.3415C136.384 22.5548 136.248 21.5226 136.139 20.6806C136.03 21.5226 135.895 22.5548 135.65 23.3415L134.211 27.9854H138.013ZM145.888 33.3607V17.2054C145.888 16.2822 146.73 15.4678 147.789 15.4678C148.847 15.4678 149.689 16.2822 149.689 17.2054V33.3607C149.689 34.284 148.821 35.0983 147.789 35.0983C146.756 35.0983 145.888 34.284 145.888 33.3607Z" fill="#494645"/>
</g>
<defs>
<clipPath id="clip0_1714_2231">
<rect width="150.266" height="49.7937" fill="white" transform="translate(0.426758 0.207031)"/>
</clipPath>
</defs>
</svg>
