<svg width="809" height="376" viewBox="0 0 809 376" fill="none" xmlns="http://www.w3.org/2000/svg">
<rect width="809" height="376" rx="32" fill="#00BC84" fill-opacity="0.1"/>
<path opacity="0.81" d="M642.906 94.076V170H632.754V116.108H615.042V108.548C627.354 107.684 632.43 106.496 635.454 94.076H642.906ZM683.262 104.984L680.022 125.828C683.262 123.344 687.906 121.076 694.71 121.076C707.022 121.076 719.658 129.716 719.658 145.376C719.658 153.8 715.878 172.052 692.118 172.052C682.182 172.052 669.438 168.056 667.602 151.1H677.43C678.402 159.956 684.99 163.844 693.522 163.844C703.35 163.844 709.506 155.96 709.506 146.456C709.506 135.548 702.054 129.608 692.658 129.608C687.15 129.608 682.182 132.2 678.618 136.844L670.41 136.412L676.134 95.696H715.446V104.984H683.262ZM740.747 116.273V102.276H745.477V116.273H759.474V121.003H745.477V135H740.747V121.003H726.685V116.273H740.747Z" fill="black"/>
<path d="M76.588 112.14V121.104H83.536C86.668 121.104 88.792 119.952 88.792 116.46C88.792 113.184 86.56 112.14 83.68 112.14H76.588ZM76.588 124.092V135H73.096V109.152H84.724C89.512 109.152 92.392 112.248 92.392 116.424C92.392 120.024 90.34 124.092 84.724 124.092H76.588ZM97.7183 121.896H94.8023C94.9463 117.396 97.9343 115.632 102.578 115.632C104.09 115.632 109.562 116.064 109.562 120.888V131.724C109.562 132.516 109.958 132.84 110.606 132.84C110.894 132.84 111.29 132.768 111.65 132.696V135C111.11 135.144 110.642 135.36 109.922 135.36C107.114 135.36 106.682 133.92 106.574 132.48C105.35 133.812 103.442 135.54 99.7703 135.54C96.3143 135.54 93.8663 133.344 93.8663 130.104C93.8663 128.52 94.3343 124.848 99.5903 124.2L104.81 123.552C105.566 123.48 106.466 123.192 106.466 121.32C106.466 119.34 105.026 118.26 102.038 118.26C98.4383 118.26 97.9343 120.456 97.7183 121.896ZM106.394 128.484V125.388C105.89 125.784 105.098 126.072 101.174 126.576C99.6263 126.792 97.1423 127.26 97.1423 129.636C97.1423 131.688 98.1863 132.912 100.562 132.912C103.514 132.912 106.394 131.004 106.394 128.484ZM121.826 118.8H118.802V131.04C118.802 132.516 120.062 132.516 120.71 132.516H121.826V135C120.674 135.108 119.774 135.252 119.45 135.252C116.318 135.252 115.634 133.488 115.634 131.22V118.8H113.078V116.172H115.634V110.916H118.802V116.172H121.826V118.8ZM137.75 129.096H140.918C140.81 129.996 139.946 132.66 137.57 134.244C136.706 134.82 135.482 135.54 132.458 135.54C127.166 135.54 124.034 131.544 124.034 126.108C124.034 120.276 126.842 115.632 133.07 115.632C138.506 115.632 141.17 119.952 141.17 126.612H127.418C127.418 130.536 129.254 132.804 132.89 132.804C135.878 132.804 137.642 130.5 137.75 129.096ZM127.418 124.092H137.894C137.714 121.176 136.49 118.476 132.638 118.476C129.722 118.476 127.418 121.176 127.418 124.092ZM160.274 122.184V135H157.106V123.408C157.106 120.132 156.17 118.476 153.074 118.476C151.274 118.476 148.106 119.628 148.106 124.74V135H144.938V116.172H147.926V118.836H147.998C148.682 117.828 150.446 115.632 153.686 115.632C156.602 115.632 160.274 116.82 160.274 122.184ZM171.854 118.8H168.83V131.04C168.83 132.516 170.09 132.516 170.738 132.516H171.854V135C170.702 135.108 169.802 135.252 169.478 135.252C166.346 135.252 165.662 133.488 165.662 131.22V118.8H163.106V116.172H165.662V110.916H168.83V116.172H171.854V118.8ZM188.713 121.536H185.653C185.617 120.348 185.185 118.368 181.189 118.368C180.217 118.368 177.445 118.692 177.445 121.032C177.445 122.58 178.417 122.94 180.865 123.552L184.033 124.344C187.957 125.316 189.325 126.756 189.325 129.312C189.325 133.2 186.121 135.54 181.873 135.54C174.421 135.54 173.881 131.22 173.773 128.952H176.833C176.941 130.428 177.373 132.804 181.837 132.804C184.105 132.804 186.157 131.904 186.157 129.816C186.157 128.304 185.113 127.8 182.413 127.116L178.741 126.216C176.113 125.568 174.385 124.236 174.385 121.644C174.385 117.504 177.805 115.632 181.513 115.632C188.245 115.632 188.713 120.6 188.713 121.536ZM200.641 137.52H236.641V101.52H200.641V137.52ZM246.66 137.52H282.66V101.52H246.66V137.52Z" fill="black"/>
<path opacity="0.61" d="M78.7967 206.384C78.7967 208.472 77.0927 210.152 75.0047 210.152C72.9167 210.152 71.2367 208.496 71.2367 206.384C71.2367 204.296 72.8927 202.592 75.0047 202.592C77.0927 202.592 78.7967 204.296 78.7967 206.384ZM97.104 199.76V205.064H101.304C103.536 205.064 104.904 204.392 104.904 202.28C104.904 200.672 103.92 199.76 101.328 199.76H97.104ZM94.776 215V197.768H102.36C105.576 197.768 107.232 199.76 107.232 202.112C107.232 203.24 106.824 204.824 104.928 205.712C106.056 206.168 108.048 206.96 108.048 209.912C108.048 212.672 106.008 215 102.192 215H94.776ZM97.104 206.96V213.008H102.072C104.496 213.008 105.72 211.784 105.72 209.864C105.72 207.44 103.584 206.96 101.688 206.96H97.104ZM112.728 202.448V215H110.616V202.448H112.728ZM112.728 200.168H110.616V197.768H112.728V200.168ZM117.472 208.688C117.472 211.448 118.552 213.536 120.856 213.536C122.2 213.536 124.288 212.648 124.288 209.312C124.288 207.272 123.952 203.984 120.904 203.984C117.64 203.984 117.472 207.08 117.472 208.688ZM126.304 202.448V213.968C126.304 215.768 126.28 220.28 120.472 220.28C118.984 220.28 116.08 219.872 115.672 216.536H117.784C118.168 218.528 120.112 218.528 120.616 218.528C124.264 218.528 124.192 215.6 124.192 214.112V213.584H124.144V213.68C123.592 214.568 122.488 215.36 120.808 215.36C116.536 215.36 115.288 211.352 115.288 208.352C115.288 204.824 117.184 202.088 120.52 202.088C122.8 202.088 123.76 203.504 124.264 204.224H124.312V202.448H126.304ZM145.928 215H143.672V204.824C143.672 204.32 143.72 202.136 143.72 200.528H143.672L138.824 215H136.52L131.672 200.552H131.624C131.624 202.136 131.672 204.32 131.672 204.824V215H129.416V197.768H132.752L137.672 212.336H137.72L142.616 197.768H145.928V215ZM148.496 208.712C148.496 205.472 150.32 202.088 154.328 202.088C158.336 202.088 160.16 205.472 160.16 208.712C160.16 211.952 158.336 215.336 154.328 215.336C150.32 215.336 148.496 211.952 148.496 208.712ZM150.68 208.712C150.68 210.392 151.304 213.512 154.328 213.512C157.352 213.512 157.976 210.392 157.976 208.712C157.976 207.032 157.352 203.912 154.328 203.912C151.304 203.912 150.68 207.032 150.68 208.712ZM164.712 202.448V216.848C164.712 217.928 164.616 220.04 161.496 220.04C161.208 220.04 160.92 220.016 160.608 219.968V218.144H161.04C162.288 218.144 162.6 218.024 162.6 216.608V202.448H164.712ZM164.712 197.768V200.168H162.6V197.768H164.712ZM170.033 202.448V215H167.921V202.448H170.033ZM170.033 200.168H167.921V197.768H170.033V200.168ZM78.7967 256.384C78.7967 258.472 77.0927 260.152 75.0047 260.152C72.9167 260.152 71.2367 258.496 71.2367 256.384C71.2367 254.296 72.8927 252.592 75.0047 252.592C77.0927 252.592 78.7967 254.296 78.7967 256.384ZM97.512 247.768V265H95.184V247.768H97.512ZM117.944 265H115.688V254.824C115.688 254.32 115.736 252.136 115.736 250.528H115.688L110.84 265H108.536L103.688 250.552H103.64C103.64 252.136 103.688 254.32 103.688 254.824V265H101.432V247.768H104.768L109.688 262.336H109.736L114.632 247.768H117.944V265ZM134.456 262.936V265H121.736V247.768H134.288V249.832H124.064V255.112H133.496V257.176H124.064V262.936H134.456ZM141.5 249.832V247.768H155.492V249.832H149.66V265H147.332V249.832H141.5ZM163.057 261.064H165.169C165.097 261.664 164.521 263.44 162.937 264.496C162.361 264.88 161.545 265.36 159.529 265.36C156.001 265.36 153.913 262.696 153.913 259.072C153.913 255.184 155.785 252.088 159.937 252.088C163.561 252.088 165.337 254.968 165.337 259.408H156.169C156.169 262.024 157.393 263.536 159.817 263.536C161.809 263.536 162.985 262 163.057 261.064ZM156.169 257.728H163.153C163.033 255.784 162.217 253.984 159.649 253.984C157.705 253.984 156.169 255.784 156.169 257.728ZM177.017 256.024H174.977C174.953 255.232 174.665 253.912 172.001 253.912C171.353 253.912 169.505 254.128 169.505 255.688C169.505 256.72 170.153 256.96 171.785 257.368L173.897 257.896C176.513 258.544 177.425 259.504 177.425 261.208C177.425 263.8 175.289 265.36 172.457 265.36C167.489 265.36 167.129 262.48 167.057 260.968H169.097C169.169 261.952 169.457 263.536 172.433 263.536C173.945 263.536 175.313 262.936 175.313 261.544C175.313 260.536 174.617 260.2 172.817 259.744L170.369 259.144C168.617 258.712 167.465 257.824 167.465 256.096C167.465 253.336 169.745 252.088 172.217 252.088C176.705 252.088 177.017 255.4 177.017 256.024ZM184.457 254.2H182.441V262.36C182.441 263.344 183.281 263.344 183.713 263.344H184.457V265C183.689 265.072 183.089 265.168 182.873 265.168C180.785 265.168 180.329 263.992 180.329 262.48V254.2H178.625V252.448H180.329V248.944H182.441V252.448H184.457V254.2ZM206.048 252.808H203.864C203.744 250.144 201.536 249.304 199.592 249.304C198.128 249.304 195.656 249.712 195.656 252.328C195.656 253.792 196.688 254.272 197.696 254.512L202.616 255.64C204.848 256.168 206.528 257.512 206.528 260.248C206.528 264.328 202.736 265.456 199.784 265.456C196.592 265.456 195.344 264.496 194.576 263.8C193.112 262.48 192.824 261.04 192.824 259.432H195.008C195.008 262.552 197.552 263.464 199.76 263.464C201.44 263.464 204.272 263.032 204.272 260.56C204.272 258.76 203.432 258.184 200.6 257.512L197.072 256.696C195.944 256.432 193.4 255.64 193.4 252.64C193.4 249.952 195.152 247.312 199.328 247.312C205.352 247.312 205.952 250.912 206.048 252.808ZM219.392 265H217.4V263.176L217.352 263.128C216.464 264.592 215.384 265.36 213.368 265.36C211.52 265.36 209.288 264.472 209.288 261.472V252.448H211.4V260.776C211.4 262.84 212.456 263.536 213.824 263.536C216.488 263.536 217.28 261.184 217.28 259.36V252.448H219.392V265ZM224.712 252.448V265H222.6V252.448H224.712ZM224.712 250.168H222.6V247.768H224.712V250.168ZM232.48 254.2H230.465V262.36C230.465 263.344 231.305 263.344 231.737 263.344H232.48V265C231.713 265.072 231.113 265.168 230.897 265.168C228.809 265.168 228.353 263.992 228.353 262.48V254.2H226.649V252.448H228.353V248.944H230.465V252.448H232.48V254.2ZM243.096 261.064H245.208C245.136 261.664 244.56 263.44 242.976 264.496C242.4 264.88 241.584 265.36 239.568 265.36C236.04 265.36 233.952 262.696 233.952 259.072C233.952 255.184 235.824 252.088 239.976 252.088C243.6 252.088 245.376 254.968 245.376 259.408H236.208C236.208 262.024 237.432 263.536 239.856 263.536C241.848 263.536 243.024 262 243.096 261.064ZM236.208 257.728H243.192C243.072 255.784 242.256 253.984 239.688 253.984C237.744 253.984 236.208 255.784 236.208 257.728ZM78.7967 306.384C78.7967 308.472 77.0927 310.152 75.0047 310.152C72.9167 310.152 71.2367 308.496 71.2367 306.384C71.2367 304.296 72.8927 302.592 75.0047 302.592C77.0927 302.592 78.7967 304.296 78.7967 306.384ZM106.176 304.896V297.768H108.504V315H106.176V306.96H97.176V315H94.848V297.768H97.176V304.896H106.176ZM120.424 311.064H122.536C122.464 311.664 121.888 313.44 120.304 314.496C119.728 314.88 118.912 315.36 116.896 315.36C113.368 315.36 111.28 312.696 111.28 309.072C111.28 305.184 113.152 302.088 117.304 302.088C120.928 302.088 122.704 304.968 122.704 309.408H113.536C113.536 312.024 114.76 313.536 117.184 313.536C119.176 313.536 120.352 312 120.424 311.064ZM113.536 307.728H120.52C120.4 305.784 119.584 303.984 117.016 303.984C115.072 303.984 113.536 305.784 113.536 307.728ZM127.088 306.264H125.144C125.24 303.264 127.232 302.088 130.328 302.088C131.336 302.088 134.984 302.376 134.984 305.592V312.816C134.984 313.344 135.248 313.56 135.68 313.56C135.872 313.56 136.136 313.512 136.376 313.464V315C136.016 315.096 135.704 315.24 135.224 315.24C133.352 315.24 133.064 314.28 132.992 313.32C132.176 314.208 130.904 315.36 128.456 315.36C126.152 315.36 124.52 313.896 124.52 311.736C124.52 310.68 124.832 308.232 128.336 307.8L131.816 307.368C132.32 307.32 132.92 307.128 132.92 305.88C132.92 304.56 131.96 303.84 129.968 303.84C127.568 303.84 127.232 305.304 127.088 306.264ZM132.872 310.656V308.592C132.536 308.856 132.008 309.048 129.392 309.384C128.36 309.528 126.704 309.84 126.704 311.424C126.704 312.792 127.4 313.608 128.984 313.608C130.952 313.608 132.872 312.336 132.872 310.656ZM148.968 297.768V315H146.976V313.272H146.928C146.016 314.976 144.576 315.36 143.352 315.36C139.08 315.36 137.832 311.352 137.832 308.352C137.832 304.824 139.728 302.088 143.064 302.088C145.344 302.088 146.304 303.504 146.808 304.224L146.856 304.056V297.768H148.968ZM140.016 308.688C140.016 311.448 141.096 313.536 143.4 313.536C144.744 313.536 146.832 312.648 146.832 309.312C146.832 307.272 146.496 303.984 143.448 303.984C140.184 303.984 140.016 307.08 140.016 308.688ZM173.184 302.952H170.928C170.28 299.928 167.76 299.376 166.104 299.376C162.984 299.376 160.464 301.68 160.464 306.216C160.464 310.272 161.904 313.392 166.176 313.392C167.688 313.392 170.304 312.672 171.096 308.664H173.352C172.392 315.168 167.112 315.456 165.816 315.456C161.904 315.456 158.064 312.912 158.064 306.288C158.064 300.984 161.088 297.312 166.104 297.312C170.544 297.312 172.848 300.072 173.184 302.952ZM177.76 306.264H175.816C175.912 303.264 177.904 302.088 181 302.088C182.008 302.088 185.656 302.376 185.656 305.592V312.816C185.656 313.344 185.92 313.56 186.352 313.56C186.544 313.56 186.808 313.512 187.048 313.464V315C186.688 315.096 186.376 315.24 185.896 315.24C184.024 315.24 183.736 314.28 183.664 313.32C182.848 314.208 181.576 315.36 179.128 315.36C176.824 315.36 175.192 313.896 175.192 311.736C175.192 310.68 175.504 308.232 179.008 307.8L182.488 307.368C182.992 307.32 183.592 307.128 183.592 305.88C183.592 304.56 182.632 303.84 180.64 303.84C178.24 303.84 177.904 305.304 177.76 306.264ZM183.544 310.656V308.592C183.208 308.856 182.68 309.048 180.064 309.384C179.032 309.528 177.376 309.84 177.376 311.424C177.376 312.792 178.072 313.608 179.656 313.608C181.624 313.608 183.544 312.336 183.544 310.656ZM191.624 307.704V315H189.512V302.448H191.504V304.536H191.552C192.392 303.072 193.496 302.088 195.08 302.088C195.344 302.088 195.464 302.112 195.632 302.16V304.344H194.84C192.872 304.344 191.624 305.88 191.624 307.704ZM202.785 304.2H200.769V312.36C200.769 313.344 201.609 313.344 202.041 313.344H202.785V315C202.017 315.072 201.417 315.168 201.201 315.168C199.113 315.168 198.657 313.992 198.657 312.48V304.2H196.953V302.448H198.657V298.944H200.769V302.448H202.785V304.2ZM204.137 308.712C204.137 305.472 205.961 302.088 209.969 302.088C213.977 302.088 215.801 305.472 215.801 308.712C215.801 311.952 213.977 315.336 209.969 315.336C205.961 315.336 204.137 311.952 204.137 308.712ZM206.321 308.712C206.321 310.392 206.945 313.512 209.969 313.512C212.993 313.512 213.617 310.392 213.617 308.712C213.617 307.032 212.993 303.912 209.969 303.912C206.945 303.912 206.321 307.032 206.321 308.712ZM217.473 308.712C217.473 305.472 219.297 302.088 223.305 302.088C227.313 302.088 229.137 305.472 229.137 308.712C229.137 311.952 227.313 315.336 223.305 315.336C219.297 315.336 217.473 311.952 217.473 308.712ZM219.657 308.712C219.657 310.392 220.281 313.512 223.305 313.512C226.329 313.512 226.953 310.392 226.953 308.712C226.953 307.032 226.329 303.912 223.305 303.912C220.281 303.912 219.657 307.032 219.657 308.712ZM241.753 306.456V315H239.641V307.272C239.641 305.088 239.017 303.984 236.953 303.984C235.753 303.984 233.641 304.752 233.641 308.16V315H231.529V302.448H233.521V304.224H233.569C234.025 303.552 235.201 302.088 237.361 302.088C239.305 302.088 241.753 302.88 241.753 306.456ZM247.025 302.448V315H244.913V302.448H247.025ZM247.025 300.168H244.913V297.768H247.025V300.168ZM254.913 304.2H252.801V315H250.689V304.2H248.961V302.448H250.689V300.288C250.689 298.392 251.889 297.528 253.953 297.528C254.265 297.528 254.577 297.552 254.913 297.576V299.472C254.649 299.448 254.313 299.424 254.049 299.424C253.137 299.424 252.801 299.88 252.801 300.888V302.448H254.913V304.2ZM259.025 302.448V315H256.913V302.448H259.025ZM259.025 300.168H256.913V297.768H259.025V300.168ZM272.073 306.672H270.033C269.769 304.992 268.833 303.984 267.057 303.984C264.441 303.984 263.601 306.48 263.601 308.712C263.601 310.872 264.129 313.536 267.033 313.536C268.449 313.536 269.673 312.48 270.033 310.56H272.073C271.857 312.552 270.633 315.36 266.961 315.36C263.433 315.36 261.345 312.696 261.345 309.072C261.345 305.184 263.217 302.088 267.369 302.088C270.657 302.088 271.905 304.488 272.073 306.672ZM276.057 306.264H274.113C274.209 303.264 276.201 302.088 279.297 302.088C280.305 302.088 283.953 302.376 283.953 305.592V312.816C283.953 313.344 284.217 313.56 284.649 313.56C284.841 313.56 285.105 313.512 285.345 313.464V315C284.985 315.096 284.673 315.24 284.193 315.24C282.321 315.24 282.033 314.28 281.961 313.32C281.145 314.208 279.873 315.36 277.425 315.36C275.121 315.36 273.489 313.896 273.489 311.736C273.489 310.68 273.801 308.232 277.305 307.8L280.785 307.368C281.289 307.32 281.889 307.128 281.889 305.88C281.889 304.56 280.929 303.84 278.937 303.84C276.537 303.84 276.201 305.304 276.057 306.264ZM281.841 310.656V308.592C281.505 308.856 280.977 309.048 278.361 309.384C277.329 309.528 275.673 309.84 275.673 311.424C275.673 312.792 276.369 313.608 277.953 313.608C279.921 313.608 281.841 312.336 281.841 310.656ZM292.129 304.2H290.113V312.36C290.113 313.344 290.953 313.344 291.385 313.344H292.129V315C291.361 315.072 290.761 315.168 290.545 315.168C288.457 315.168 288.001 313.992 288.001 312.48V304.2H286.297V302.448H288.001V298.944H290.113V302.448H292.129V304.2ZM296.361 302.448V315H294.249V302.448H296.361ZM296.361 300.168H294.249V297.768H296.361V300.168ZM298.801 308.712C298.801 305.472 300.625 302.088 304.633 302.088C308.641 302.088 310.465 305.472 310.465 308.712C310.465 311.952 308.641 315.336 304.633 315.336C300.625 315.336 298.801 311.952 298.801 308.712ZM300.985 308.712C300.985 310.392 301.609 313.512 304.633 313.512C307.657 313.512 308.281 310.392 308.281 308.712C308.281 307.032 307.657 303.912 304.633 303.912C301.609 303.912 300.985 307.032 300.985 308.712ZM323.081 306.456V315H320.969V307.272C320.969 305.088 320.345 303.984 318.281 303.984C317.081 303.984 314.969 304.752 314.969 308.16V315H312.857V302.448H314.849V304.224H314.897C315.353 303.552 316.529 302.088 318.689 302.088C320.633 302.088 323.081 302.88 323.081 306.456ZM329.889 312.456V315H327.393V312.456H329.889ZM337.881 312.456V315H335.385V312.456H337.881ZM345.873 312.456V315H343.377V312.456H345.873Z" fill="black"/>
<path d="M740 304.999L731 295.999L733.9 293.099L740 299.199L746.1 293.099L749 295.999L740 304.999ZM733.9 281.099L731 278.199L740 269.199L749 278.199L746.1 281.099L740 274.999L733.9 281.099Z" fill="#00949E"/>
</svg>
