<svg width="203" height="44" viewBox="0 0 203 44" fill="none" xmlns="http://www.w3.org/2000/svg">
<rect x="0.25" y="0.25" width="202.5" height="43.5" rx="21.75" stroke="#00BC84" stroke-width="0.5"/>
<g clip-path="url(#clip0_64_1806)">
<path d="M59.3409 8H42.6552C39.5298 8 37 10.5298 37 13.6552V30.3448C37 33.4663 39.5298 35.9967 42.6552 35.9967H59.3448C62.4663 35.9967 65 33.4669 65 30.3415V13.6552C64.9962 10.5304 62.4663 8 59.3409 8Z" fill="url(#paint0_linear_64_1806)"/>
<path d="M50.8799 14.4317L51.447 13.4523C51.797 12.8403 52.5769 12.6336 53.1899 12.9836C53.8019 13.3336 54.0091 14.1145 53.6586 14.7265L48.1959 24.1819H52.1465C53.4278 24.1819 54.1448 25.6869 53.5886 26.7293H42.0047C41.2976 26.7293 40.7305 26.1622 40.7305 25.4551C40.7305 24.748 41.2976 24.1808 42.0047 24.1808H45.252L49.4099 16.9752L48.1122 14.7215C47.7622 14.1096 47.9689 13.3352 48.5809 12.9787C49.1928 12.6287 49.9672 12.8354 50.3238 13.4473L50.8799 14.4317ZM45.9662 28.0412L44.7413 30.1653C44.3913 30.7773 43.6103 30.984 42.9984 30.634C42.3864 30.284 42.1797 29.5041 42.5297 28.8911L43.4397 27.3161C44.4684 26.9983 45.3045 27.2433 45.9662 28.0412ZM56.5133 24.1885H59.8273C60.5345 24.1885 61.1016 24.7556 61.1016 25.4627C61.1016 26.1698 60.5345 26.7369 59.8273 26.7369H57.986L59.228 28.8927C59.578 29.5047 59.3713 30.279 58.7593 30.6356C58.1473 30.9856 57.373 30.7789 57.0164 30.1669C54.9235 26.5379 53.3529 23.8221 52.3095 22.013C51.2425 20.1717 52.0048 18.3249 52.7573 17.6982C53.5952 19.1315 54.8442 21.2983 56.5133 24.1885Z" fill="white"/>
</g>
<path opacity="0.38" d="M79.7959 6.84375C80.335 6.84375 80.8011 6.94792 81.1943 7.15625C81.7646 7.45573 82.1136 7.98047 82.2412 8.73047H81.4717C81.3779 8.3112 81.1839 8.00651 80.8896 7.81641C80.5954 7.6237 80.2243 7.52734 79.7764 7.52734C79.2451 7.52734 78.7972 7.72656 78.4326 8.125C78.0706 8.52344 77.8896 9.11719 77.8896 9.90625C77.8896 10.5885 78.0394 11.1445 78.3389 11.5742C78.6383 12.0013 79.1266 12.2148 79.8037 12.2148C80.3219 12.2148 80.7503 12.0651 81.0889 11.7656C81.43 11.4635 81.6045 10.9766 81.6123 10.3047H79.8154V9.66016H82.335V12.7305H81.835L81.6475 11.9922C81.3844 12.2812 81.1514 12.4818 80.9482 12.5938C80.6071 12.7865 80.1735 12.8828 79.6475 12.8828C78.9678 12.8828 78.3831 12.6628 77.8936 12.2227C77.3597 11.6706 77.0928 10.9128 77.0928 9.94922C77.0928 8.98828 77.3532 8.22396 77.874 7.65625C78.3688 7.11458 79.0094 6.84375 79.7959 6.84375ZM85.1904 8.45312C85.4873 8.45312 85.7751 8.52344 86.0537 8.66406C86.3324 8.80208 86.5446 8.98177 86.6904 9.20312C86.8311 9.41406 86.9248 9.66016 86.9717 9.94141C87.0133 10.1341 87.0342 10.4414 87.0342 10.8633H83.9678C83.9808 11.2878 84.0811 11.6289 84.2686 11.8867C84.4561 12.1419 84.7464 12.2695 85.1396 12.2695C85.5068 12.2695 85.7998 12.1484 86.0186 11.9062C86.1436 11.7656 86.2321 11.6029 86.2842 11.418H86.9756C86.9574 11.5716 86.8962 11.7435 86.792 11.9336C86.6904 12.1211 86.5758 12.2747 86.4482 12.3945C86.2347 12.6029 85.9704 12.7435 85.6553 12.8164C85.486 12.8581 85.2946 12.8789 85.0811 12.8789C84.5602 12.8789 84.1188 12.6901 83.7568 12.3125C83.3949 11.9323 83.2139 11.401 83.2139 10.7188C83.2139 10.0469 83.3962 9.5013 83.7607 9.08203C84.1253 8.66276 84.6019 8.45312 85.1904 8.45312ZM86.3115 10.3047C86.2829 10 86.2165 9.75651 86.1123 9.57422C85.9196 9.23568 85.598 9.06641 85.1475 9.06641C84.8245 9.06641 84.5537 9.18359 84.335 9.41797C84.1162 9.64974 84.0003 9.94531 83.9873 10.3047H86.3115ZM88.042 7.37891H88.7529V8.54688H89.4209V9.12109H88.7529V11.8516C88.7529 11.9974 88.8024 12.0951 88.9014 12.1445C88.9561 12.1732 89.0472 12.1875 89.1748 12.1875C89.2087 12.1875 89.2451 12.1875 89.2842 12.1875C89.3232 12.1849 89.3688 12.181 89.4209 12.1758V12.7305C89.3402 12.7539 89.2555 12.7708 89.167 12.7812C89.0811 12.7917 88.9873 12.7969 88.8857 12.7969C88.5576 12.7969 88.335 12.7135 88.2178 12.5469C88.1006 12.3776 88.042 12.1589 88.042 11.8906V9.12109H87.4756V8.54688H88.042V7.37891ZM94.9561 10.3789L94.085 7.84375L93.1592 10.3789H94.9561ZM93.6787 6.99219H94.5576L96.6396 12.7305H95.7881L95.2061 11.0117H92.9365L92.3154 12.7305H91.5186L93.6787 6.99219ZM99.0186 12.2578C99.3467 12.2578 99.6188 12.1211 99.835 11.8477C100.054 11.5716 100.163 11.1602 100.163 10.6133C100.163 10.2799 100.115 9.99349 100.019 9.75391C99.8363 9.29297 99.5029 9.0625 99.0186 9.0625C98.5316 9.0625 98.1982 9.30599 98.0186 9.79297C97.9222 10.0534 97.874 10.3841 97.874 10.7852C97.874 11.1081 97.9222 11.3828 98.0186 11.6094C98.2008 12.0417 98.5342 12.2578 99.0186 12.2578ZM97.1982 8.56641H97.8818V9.12109C98.0225 8.93099 98.1761 8.78385 98.3428 8.67969C98.5798 8.52344 98.8584 8.44531 99.1787 8.44531C99.6527 8.44531 100.055 8.6276 100.386 8.99219C100.716 9.35417 100.882 9.8724 100.882 10.5469C100.882 11.4583 100.644 12.1094 100.167 12.5C99.8649 12.7474 99.5133 12.8711 99.1123 12.8711C98.7972 12.8711 98.5329 12.8021 98.3193 12.6641C98.1943 12.5859 98.055 12.4518 97.9014 12.2617V14.3984H97.1982V8.56641ZM103.472 12.2578C103.8 12.2578 104.072 12.1211 104.288 11.8477C104.507 11.5716 104.616 11.1602 104.616 10.6133C104.616 10.2799 104.568 9.99349 104.472 9.75391C104.289 9.29297 103.956 9.0625 103.472 9.0625C102.985 9.0625 102.651 9.30599 102.472 9.79297C102.375 10.0534 102.327 10.3841 102.327 10.7852C102.327 11.1081 102.375 11.3828 102.472 11.6094C102.654 12.0417 102.987 12.2578 103.472 12.2578ZM101.651 8.56641H102.335V9.12109C102.476 8.93099 102.629 8.78385 102.796 8.67969C103.033 8.52344 103.312 8.44531 103.632 8.44531C104.106 8.44531 104.508 8.6276 104.839 8.99219C105.17 9.35417 105.335 9.8724 105.335 10.5469C105.335 11.4583 105.097 12.1094 104.62 12.5C104.318 12.7474 103.966 12.8711 103.565 12.8711C103.25 12.8711 102.986 12.8021 102.772 12.6641C102.647 12.5859 102.508 12.4518 102.354 12.2617V14.3984H101.651V8.56641ZM110.046 12.2773C110.512 12.2773 110.831 12.1016 111.003 11.75C111.177 11.3958 111.265 11.0026 111.265 10.5703C111.265 10.1797 111.202 9.86198 111.077 9.61719C110.879 9.23177 110.538 9.03906 110.054 9.03906C109.624 9.03906 109.312 9.20312 109.116 9.53125C108.921 9.85938 108.823 10.2552 108.823 10.7188C108.823 11.1641 108.921 11.5352 109.116 11.832C109.312 12.1289 109.621 12.2773 110.046 12.2773ZM110.073 8.42578C110.612 8.42578 111.068 8.60547 111.44 8.96484C111.813 9.32422 111.999 9.85286 111.999 10.5508C111.999 11.2253 111.835 11.7826 111.507 12.2227C111.179 12.6628 110.67 12.8828 109.979 12.8828C109.404 12.8828 108.947 12.6888 108.608 12.3008C108.27 11.9102 108.101 11.3867 108.101 10.7305C108.101 10.0273 108.279 9.46745 108.636 9.05078C108.993 8.63411 109.472 8.42578 110.073 8.42578ZM112.839 8.54688H113.507V9.14062C113.705 8.89583 113.914 8.72005 114.136 8.61328C114.357 8.50651 114.603 8.45312 114.874 8.45312C115.468 8.45312 115.869 8.66016 116.077 9.07422C116.192 9.30078 116.249 9.625 116.249 10.0469V12.7305H115.534V10.0938C115.534 9.83854 115.496 9.63281 115.421 9.47656C115.296 9.21615 115.069 9.08594 114.741 9.08594C114.575 9.08594 114.438 9.10286 114.331 9.13672C114.138 9.19401 113.969 9.30859 113.823 9.48047C113.706 9.61849 113.629 9.76172 113.593 9.91016C113.559 10.056 113.542 10.2656 113.542 10.5391V12.7305H112.839V8.54688Z" fill="black"/>
<path d="M83.6641 24.4395L81.7041 18.7354L79.6211 24.4395H83.6641ZM80.79 16.8193H82.7676L87.4521 29.7305H85.5361L84.2266 25.8633H79.1201L77.7227 29.7305H75.9297L80.79 16.8193ZM92.8047 28.667C93.543 28.667 94.1553 28.3594 94.6416 27.7441C95.1338 27.123 95.3799 26.1973 95.3799 24.9668C95.3799 24.2168 95.2715 23.5723 95.0547 23.0332C94.6445 21.9961 93.8945 21.4775 92.8047 21.4775C91.709 21.4775 90.959 22.0254 90.5547 23.1211C90.3379 23.707 90.2295 24.4512 90.2295 25.3535C90.2295 26.0801 90.3379 26.6982 90.5547 27.208C90.9648 28.1807 91.7148 28.667 92.8047 28.667ZM88.709 20.3613H90.2471V21.6094C90.5635 21.1816 90.9092 20.8506 91.2842 20.6162C91.8174 20.2646 92.4443 20.0889 93.165 20.0889C94.2314 20.0889 95.1367 20.499 95.8809 21.3193C96.625 22.1338 96.9971 23.2998 96.9971 24.8174C96.9971 26.8682 96.4609 28.333 95.3887 29.2119C94.709 29.7686 93.918 30.0469 93.0156 30.0469C92.3066 30.0469 91.7119 29.8916 91.2314 29.5811C90.9502 29.4053 90.6367 29.1035 90.291 28.6758V33.4834H88.709V20.3613ZM102.824 28.667C103.562 28.667 104.175 28.3594 104.661 27.7441C105.153 27.123 105.399 26.1973 105.399 24.9668C105.399 24.2168 105.291 23.5723 105.074 23.0332C104.664 21.9961 103.914 21.4775 102.824 21.4775C101.729 21.4775 100.979 22.0254 100.574 23.1211C100.357 23.707 100.249 24.4512 100.249 25.3535C100.249 26.0801 100.357 26.6982 100.574 27.208C100.984 28.1807 101.734 28.667 102.824 28.667ZM98.7285 20.3613H100.267V21.6094C100.583 21.1816 100.929 20.8506 101.304 20.6162C101.837 20.2646 102.464 20.0889 103.185 20.0889C104.251 20.0889 105.156 20.499 105.9 21.3193C106.645 22.1338 107.017 23.2998 107.017 24.8174C107.017 26.8682 106.48 28.333 105.408 29.2119C104.729 29.7686 103.938 30.0469 103.035 30.0469C102.326 30.0469 101.731 29.8916 101.251 29.5811C100.97 29.4053 100.656 29.1035 100.311 28.6758V33.4834H98.7285V20.3613ZM115.234 25.5645C115.275 26.2969 115.448 26.8916 115.753 27.3486C116.333 28.2041 117.355 28.6318 118.82 28.6318C119.477 28.6318 120.074 28.5381 120.613 28.3506C121.656 27.9873 122.178 27.3369 122.178 26.3994C122.178 25.6963 121.958 25.1953 121.519 24.8965C121.073 24.6035 120.376 24.3486 119.427 24.1318L117.678 23.7363C116.535 23.4785 115.727 23.1943 115.252 22.8838C114.432 22.3447 114.021 21.5391 114.021 20.4668C114.021 19.3066 114.423 18.3545 115.226 17.6104C116.028 16.8662 117.165 16.4941 118.636 16.4941C119.989 16.4941 121.138 16.8223 122.081 17.4785C123.03 18.1289 123.505 19.1719 123.505 20.6074H121.861C121.773 19.916 121.586 19.3857 121.299 19.0166C120.766 18.3428 119.86 18.0059 118.583 18.0059C117.552 18.0059 116.811 18.2227 116.359 18.6562C115.908 19.0898 115.683 19.5938 115.683 20.168C115.683 20.8008 115.946 21.2637 116.474 21.5566C116.819 21.7441 117.602 21.9785 118.82 22.2598L120.631 22.6729C121.504 22.8721 122.178 23.1445 122.652 23.4902C123.473 24.0938 123.883 24.9697 123.883 26.1182C123.883 27.5479 123.361 28.5703 122.318 29.1855C121.281 29.8008 120.074 30.1084 118.697 30.1084C117.092 30.1084 115.835 29.6982 114.927 28.8779C114.019 28.0635 113.573 26.959 113.591 25.5645H115.234ZM126.203 17.6895H127.803V20.3174H129.306V21.6094H127.803V27.7529C127.803 28.0811 127.914 28.3008 128.137 28.4121C128.26 28.4766 128.465 28.5088 128.752 28.5088C128.828 28.5088 128.91 28.5088 128.998 28.5088C129.086 28.5029 129.188 28.4941 129.306 28.4824V29.7305C129.124 29.7832 128.934 29.8213 128.734 29.8447C128.541 29.8682 128.33 29.8799 128.102 29.8799C127.363 29.8799 126.862 29.6924 126.599 29.3174C126.335 28.9365 126.203 28.4443 126.203 27.8408V21.6094H124.929V20.3174H126.203V17.6895ZM134.632 28.7109C135.681 28.7109 136.398 28.3154 136.785 27.5244C137.178 26.7275 137.374 25.8428 137.374 24.8701C137.374 23.9912 137.233 23.2764 136.952 22.7256C136.507 21.8584 135.739 21.4248 134.649 21.4248C133.683 21.4248 132.979 21.7939 132.54 22.5322C132.101 23.2705 131.881 24.1611 131.881 25.2041C131.881 26.2061 132.101 27.041 132.54 27.709C132.979 28.377 133.677 28.7109 134.632 28.7109ZM134.693 20.0449C135.906 20.0449 136.932 20.4492 137.77 21.2578C138.607 22.0664 139.026 23.2559 139.026 24.8262C139.026 26.3438 138.657 27.5977 137.919 28.5879C137.181 29.5781 136.035 30.0732 134.482 30.0732C133.188 30.0732 132.159 29.6367 131.397 28.7637C130.636 27.8848 130.255 26.707 130.255 25.2305C130.255 23.6484 130.656 22.3887 131.459 21.4512C132.262 20.5137 133.34 20.0449 134.693 20.0449ZM140.96 20.3174H142.463V21.9434C142.586 21.627 142.888 21.2432 143.368 20.792C143.849 20.335 144.402 20.1064 145.029 20.1064C145.059 20.1064 145.108 20.1094 145.179 20.1152C145.249 20.1211 145.369 20.1328 145.539 20.1504V21.8203C145.445 21.8027 145.357 21.791 145.275 21.7852C145.199 21.7793 145.114 21.7764 145.021 21.7764C144.224 21.7764 143.611 22.0342 143.184 22.5498C142.756 23.0596 142.542 23.6484 142.542 24.3164V29.7305H140.96V20.3174ZM150.83 20.1064C151.498 20.1064 152.146 20.2646 152.772 20.5811C153.399 20.8916 153.877 21.2959 154.205 21.7939C154.521 22.2686 154.732 22.8223 154.838 23.4551C154.932 23.8887 154.979 24.5801 154.979 25.5293H148.079C148.108 26.4844 148.334 27.252 148.756 27.832C149.178 28.4062 149.831 28.6934 150.716 28.6934C151.542 28.6934 152.201 28.4209 152.693 27.876C152.975 27.5596 153.174 27.1934 153.291 26.7773H154.847C154.806 27.123 154.668 27.5098 154.434 27.9375C154.205 28.3594 153.947 28.7051 153.66 28.9746C153.18 29.4434 152.585 29.7598 151.876 29.9238C151.495 30.0176 151.064 30.0645 150.584 30.0645C149.412 30.0645 148.419 29.6396 147.604 28.79C146.79 27.9346 146.383 26.7393 146.383 25.2041C146.383 23.6924 146.793 22.4648 147.613 21.5215C148.434 20.5781 149.506 20.1064 150.83 20.1064ZM153.353 24.2725C153.288 23.5869 153.139 23.0391 152.904 22.6289C152.471 21.8672 151.747 21.4863 150.733 21.4863C150.007 21.4863 149.397 21.75 148.905 22.2773C148.413 22.7988 148.152 23.4639 148.123 24.2725H153.353Z" fill="black" fill-opacity="0.87"/>
<defs>
<linearGradient id="paint0_linear_64_1806" x1="51.0007" y1="8.00011" x2="51.0007" y2="35.9957" gradientUnits="userSpaceOnUse">
<stop stop-color="#0ED4FC"/>
<stop offset="1" stop-color="#0C57EF"/>
</linearGradient>
<clipPath id="clip0_64_1806">
<rect width="28" height="28" fill="white" transform="translate(37 8)"/>
</clipPath>
</defs>
</svg>
