<svg width="203" height="44" viewBox="0 0 203 44" fill="none" xmlns="http://www.w3.org/2000/svg">
<rect x="0.25" y="0.25" width="202.5" height="43.5" rx="21.75" stroke="#00BC84" stroke-width="0.5"/>
<path d="M54.7044 14.5173H53.5669V13.4479H54.7044V14.5173ZM49.0169 14.5173H47.8795V13.4479H49.0169V14.5173ZM55.3072 11.4804L56.7973 10.0796C57.0134 9.8764 57.0134 9.53422 56.7973 9.32035C56.5698 9.11718 56.2058 9.11718 55.9897 9.32035L54.3063 10.9029C53.3963 10.4859 52.3725 10.2399 51.2919 10.2399C50.1999 10.2399 49.1762 10.4859 48.2662 10.9136L46.5714 9.32035C46.3553 9.11718 45.9913 9.11718 45.7752 9.32035C45.5477 9.53422 45.5477 9.8764 45.7752 10.0796L47.2653 11.4804C45.5705 12.6567 44.4671 14.5173 44.4671 16.656H58.1171C58.1171 14.5173 56.9793 12.646 55.3072 11.4804ZM60.9608 17.7254C60.0185 17.7254 59.2546 18.4435 59.2546 19.3294V26.8147C59.2546 27.7006 60.0185 28.4187 60.9608 28.4187C61.9031 28.4187 62.667 27.7006 62.667 26.8147V19.3294C62.667 18.4435 61.9031 17.7254 60.9608 17.7254ZM41.6232 17.7254C40.6809 17.7254 39.917 18.4435 39.917 19.3294V26.8147C39.917 27.7006 40.6809 28.4187 41.6232 28.4187C42.5655 28.4187 43.3294 27.7006 43.3294 26.8147V19.3294C43.3294 18.4435 42.5655 17.7254 41.6232 17.7254ZM44.4669 28.4187C44.4669 29.0093 44.9762 29.488 45.6044 29.488H46.7418V33.2307C46.7418 33.6561 46.9216 34.064 47.2416 34.3648C47.5615 34.6656 47.9955 34.8346 48.448 34.8346C49.3903 34.8346 50.1542 34.1165 50.1542 33.2307V29.488H52.4292V33.2307C52.4292 34.1165 53.1931 34.8346 54.1354 34.8346C55.0777 34.8346 55.8415 34.1165 55.8415 33.2307V29.488H56.979C57.6072 29.488 58.1165 29.0093 58.1165 28.4187V17.7254H44.4665L44.4669 28.4187Z" fill="#8BC34A"/>
<path opacity="0.38" d="M79.2607 12.2031L78.3896 9.66797L77.4639 12.2031H79.2607ZM77.9834 8.81641H78.8623L80.9443 14.5547H80.0928L79.5107 12.8359H77.2412L76.6201 14.5547H75.8232L77.9834 8.81641ZM81.5576 10.3711H82.2256V10.9648C82.4235 10.7201 82.6331 10.5443 82.8545 10.4375C83.0758 10.3307 83.3219 10.2773 83.5928 10.2773C84.1865 10.2773 84.5876 10.4844 84.7959 10.8984C84.9105 11.125 84.9678 11.4492 84.9678 11.8711V14.5547H84.2529V11.918C84.2529 11.6628 84.2152 11.457 84.1396 11.3008C84.0146 11.0404 83.7881 10.9102 83.46 10.9102C83.2933 10.9102 83.1566 10.9271 83.0498 10.9609C82.8571 11.0182 82.6878 11.1328 82.542 11.3047C82.4248 11.4427 82.348 11.5859 82.3115 11.7344C82.2777 11.8802 82.2607 12.0898 82.2607 12.3633V14.5547H81.5576V10.3711ZM86.4561 12.5117C86.4561 12.9596 86.5511 13.3346 86.7412 13.6367C86.9313 13.9388 87.236 14.0898 87.6553 14.0898C87.9808 14.0898 88.2477 13.9505 88.4561 13.6719C88.667 13.3906 88.7725 12.9883 88.7725 12.4648C88.7725 11.9362 88.6644 11.5456 88.4482 11.293C88.2321 11.0378 87.9652 10.9102 87.6475 10.9102C87.2933 10.9102 87.0055 11.0456 86.7842 11.3164C86.5654 11.5872 86.4561 11.9857 86.4561 12.5117ZM87.5146 10.2969C87.835 10.2969 88.1032 10.3646 88.3193 10.5C88.4443 10.5781 88.5863 10.7148 88.7451 10.9102V8.79688H89.4209V14.5547H88.7881V13.9727C88.624 14.2305 88.43 14.4167 88.2061 14.5312C87.9821 14.6458 87.7256 14.7031 87.4365 14.7031C86.9704 14.7031 86.5667 14.5078 86.2256 14.1172C85.8844 13.724 85.7139 13.2018 85.7139 12.5508C85.7139 11.9414 85.8688 11.4141 86.1787 10.9688C86.4912 10.5208 86.9365 10.2969 87.5146 10.2969ZM90.4834 10.3711H91.1514V11.0938C91.2061 10.9531 91.3402 10.7826 91.5537 10.582C91.7673 10.3789 92.0133 10.2773 92.292 10.2773C92.305 10.2773 92.3271 10.2786 92.3584 10.2812C92.3896 10.2839 92.443 10.2891 92.5186 10.2969V11.0391C92.4769 11.0312 92.4378 11.026 92.4014 11.0234C92.3675 11.0208 92.3298 11.0195 92.2881 11.0195C91.9339 11.0195 91.6618 11.1341 91.4717 11.3633C91.2816 11.5898 91.1865 11.8516 91.1865 12.1484V14.5547H90.4834V10.3711ZM94.7881 14.1016C95.2542 14.1016 95.5732 13.9258 95.7451 13.5742C95.9196 13.2201 96.0068 12.8268 96.0068 12.3945C96.0068 12.0039 95.9443 11.6862 95.8193 11.4414C95.6214 11.056 95.2803 10.8633 94.7959 10.8633C94.3662 10.8633 94.0537 11.0273 93.8584 11.3555C93.6631 11.6836 93.5654 12.0794 93.5654 12.543C93.5654 12.9883 93.6631 13.3594 93.8584 13.6562C94.0537 13.9531 94.3636 14.1016 94.7881 14.1016ZM94.8154 10.25C95.3545 10.25 95.8102 10.4297 96.1826 10.7891C96.555 11.1484 96.7412 11.6771 96.7412 12.375C96.7412 13.0495 96.5771 13.6068 96.249 14.0469C95.9209 14.487 95.4118 14.707 94.7217 14.707C94.1462 14.707 93.6891 14.513 93.3506 14.125C93.012 13.7344 92.8428 13.2109 92.8428 12.5547C92.8428 11.8516 93.0212 11.2917 93.3779 10.875C93.7347 10.4583 94.2139 10.25 94.8154 10.25ZM97.5811 10.3906H98.2959V14.5547H97.5811V10.3906ZM97.5811 8.81641H98.2959V9.61328H97.5811V8.81641ZM99.8076 12.5117C99.8076 12.9596 99.9027 13.3346 100.093 13.6367C100.283 13.9388 100.588 14.0898 101.007 14.0898C101.332 14.0898 101.599 13.9505 101.808 13.6719C102.019 13.3906 102.124 12.9883 102.124 12.4648C102.124 11.9362 102.016 11.5456 101.8 11.293C101.584 11.0378 101.317 10.9102 100.999 10.9102C100.645 10.9102 100.357 11.0456 100.136 11.3164C99.917 11.5872 99.8076 11.9857 99.8076 12.5117ZM100.866 10.2969C101.187 10.2969 101.455 10.3646 101.671 10.5C101.796 10.5781 101.938 10.7148 102.097 10.9102V8.79688H102.772V14.5547H102.14V13.9727C101.976 14.2305 101.782 14.4167 101.558 14.5312C101.334 14.6458 101.077 14.7031 100.788 14.7031C100.322 14.7031 99.9183 14.5078 99.5771 14.1172C99.236 13.724 99.0654 13.2018 99.0654 12.5508C99.0654 11.9414 99.2204 11.4141 99.5303 10.9688C99.8428 10.5208 100.288 10.2969 100.866 10.2969ZM108.644 12.2031L107.772 9.66797L106.847 12.2031H108.644ZM107.366 8.81641H108.245L110.327 14.5547H109.476L108.894 12.8359H106.624L106.003 14.5547H105.206L107.366 8.81641ZM112.706 14.082C113.034 14.082 113.306 13.9453 113.522 13.6719C113.741 13.3958 113.851 12.9844 113.851 12.4375C113.851 12.1042 113.802 11.8177 113.706 11.5781C113.524 11.1172 113.19 10.8867 112.706 10.8867C112.219 10.8867 111.886 11.1302 111.706 11.6172C111.61 11.8776 111.562 12.2083 111.562 12.6094C111.562 12.9323 111.61 13.207 111.706 13.4336C111.888 13.8659 112.222 14.082 112.706 14.082ZM110.886 10.3906H111.569V10.9453C111.71 10.7552 111.864 10.6081 112.03 10.5039C112.267 10.3477 112.546 10.2695 112.866 10.2695C113.34 10.2695 113.743 10.4518 114.073 10.8164C114.404 11.1784 114.569 11.6966 114.569 12.3711C114.569 13.2826 114.331 13.9336 113.854 14.3242C113.552 14.5716 113.201 14.6953 112.8 14.6953C112.485 14.6953 112.22 14.6263 112.007 14.4883C111.882 14.4102 111.743 14.276 111.589 14.0859V16.2227H110.886V10.3906ZM117.159 14.082C117.487 14.082 117.759 13.9453 117.976 13.6719C118.194 13.3958 118.304 12.9844 118.304 12.4375C118.304 12.1042 118.256 11.8177 118.159 11.5781C117.977 11.1172 117.644 10.8867 117.159 10.8867C116.672 10.8867 116.339 11.1302 116.159 11.6172C116.063 11.8776 116.015 12.2083 116.015 12.6094C116.015 12.9323 116.063 13.207 116.159 13.4336C116.341 13.8659 116.675 14.082 117.159 14.082ZM115.339 10.3906H116.022V10.9453C116.163 10.7552 116.317 10.6081 116.483 10.5039C116.72 10.3477 116.999 10.2695 117.319 10.2695C117.793 10.2695 118.196 10.4518 118.526 10.8164C118.857 11.1784 119.022 11.6966 119.022 12.3711C119.022 13.2826 118.784 13.9336 118.308 14.3242C118.006 14.5716 117.654 14.6953 117.253 14.6953C116.938 14.6953 116.674 14.6263 116.46 14.4883C116.335 14.4102 116.196 14.276 116.042 14.0859V16.2227H115.339V10.3906Z" fill="black"/>
<path d="M80.9941 30.0605C81.5859 30.0605 82.0723 29.999 82.4531 29.876C83.1328 29.6475 83.6895 29.208 84.123 28.5576C84.4688 28.0361 84.7178 27.3682 84.8701 26.5537C84.958 26.0674 85.002 25.6162 85.002 25.2002C85.002 23.6006 84.6826 22.3584 84.0439 21.4736C83.4111 20.5889 82.3887 20.1465 80.9766 20.1465H77.874V30.0605H80.9941ZM76.1162 18.6436H81.3457C83.1211 18.6436 84.498 19.2734 85.4766 20.5332C86.3496 21.6699 86.7861 23.126 86.7861 24.9014C86.7861 26.2725 86.5283 27.5117 86.0127 28.6191C85.1045 30.5762 83.543 31.5547 81.3281 31.5547H76.1162V18.6436ZM92.5693 30.5352C93.6182 30.5352 94.3359 30.1396 94.7227 29.3486C95.1152 28.5518 95.3115 27.667 95.3115 26.6943C95.3115 25.8154 95.1709 25.1006 94.8896 24.5498C94.4443 23.6826 93.6768 23.249 92.5869 23.249C91.6201 23.249 90.917 23.6182 90.4775 24.3564C90.0381 25.0947 89.8184 25.9854 89.8184 27.0283C89.8184 28.0303 90.0381 28.8652 90.4775 29.5332C90.917 30.2012 91.6143 30.5352 92.5693 30.5352ZM92.6309 21.8691C93.8438 21.8691 94.8691 22.2734 95.707 23.082C96.5449 23.8906 96.9639 25.0801 96.9639 26.6504C96.9639 28.168 96.5947 29.4219 95.8564 30.4121C95.1182 31.4023 93.9727 31.8975 92.4199 31.8975C91.125 31.8975 90.0967 31.4609 89.335 30.5879C88.5732 29.709 88.1924 28.5312 88.1924 27.0547C88.1924 25.4727 88.5938 24.2129 89.3965 23.2754C90.1992 22.3379 91.2773 21.8691 92.6309 21.8691ZM99.583 22.1416L101.394 29.5596L103.23 22.1416H105.006L106.852 29.5156L108.776 22.1416H110.358L107.625 31.5547H105.981L104.065 24.2686L102.211 31.5547H100.567L97.8516 22.1416H99.583ZM111.861 22.1416H113.364V23.4775C113.81 22.9268 114.281 22.5312 114.779 22.291C115.277 22.0508 115.831 21.9307 116.44 21.9307C117.776 21.9307 118.679 22.3965 119.147 23.3281C119.405 23.8379 119.534 24.5674 119.534 25.5166V31.5547H117.926V25.6221C117.926 25.0479 117.841 24.585 117.671 24.2334C117.39 23.6475 116.88 23.3545 116.142 23.3545C115.767 23.3545 115.459 23.3926 115.219 23.4688C114.785 23.5977 114.404 23.8555 114.076 24.2422C113.812 24.5527 113.64 24.875 113.558 25.209C113.481 25.5371 113.443 26.0088 113.443 26.624V31.5547H111.861V22.1416ZM121.925 18.6436H123.507V31.5547H121.925V18.6436ZM129.624 30.5352C130.673 30.5352 131.391 30.1396 131.777 29.3486C132.17 28.5518 132.366 27.667 132.366 26.6943C132.366 25.8154 132.226 25.1006 131.944 24.5498C131.499 23.6826 130.731 23.249 129.642 23.249C128.675 23.249 127.972 23.6182 127.532 24.3564C127.093 25.0947 126.873 25.9854 126.873 27.0283C126.873 28.0303 127.093 28.8652 127.532 29.5332C127.972 30.2012 128.669 30.5352 129.624 30.5352ZM129.686 21.8691C130.898 21.8691 131.924 22.2734 132.762 23.082C133.6 23.8906 134.019 25.0801 134.019 26.6504C134.019 28.168 133.649 29.4219 132.911 30.4121C132.173 31.4023 131.027 31.8975 129.475 31.8975C128.18 31.8975 127.151 31.4609 126.39 30.5879C125.628 29.709 125.247 28.5312 125.247 27.0547C125.247 25.4727 125.648 24.2129 126.451 23.2754C127.254 22.3379 128.332 21.8691 129.686 21.8691ZM137.121 29.0498C137.121 29.5068 137.288 29.8672 137.622 30.1309C137.956 30.3945 138.352 30.5264 138.809 30.5264C139.365 30.5264 139.904 30.3975 140.426 30.1396C141.305 29.7119 141.744 29.0117 141.744 28.0391V26.7646C141.551 26.8877 141.302 26.9902 140.997 27.0723C140.692 27.1543 140.394 27.2129 140.101 27.248L139.143 27.3711C138.568 27.4473 138.138 27.5674 137.851 27.7314C137.364 28.0068 137.121 28.4463 137.121 29.0498ZM140.953 25.8506C141.316 25.8037 141.56 25.6514 141.683 25.3936C141.753 25.2529 141.788 25.0508 141.788 24.7871C141.788 24.248 141.595 23.8584 141.208 23.6182C140.827 23.3721 140.279 23.249 139.564 23.249C138.738 23.249 138.152 23.4717 137.807 23.917C137.613 24.1631 137.487 24.5293 137.429 25.0156H135.952C135.981 23.8555 136.356 23.0498 137.077 22.5986C137.804 22.1416 138.645 21.9131 139.6 21.9131C140.707 21.9131 141.606 22.124 142.298 22.5459C142.983 22.9678 143.326 23.624 143.326 24.5146V29.9375C143.326 30.1016 143.358 30.2334 143.423 30.333C143.493 30.4326 143.637 30.4824 143.854 30.4824C143.924 30.4824 144.003 30.4795 144.091 30.4736C144.179 30.4619 144.272 30.4473 144.372 30.4297V31.5986C144.126 31.6689 143.938 31.7129 143.81 31.7305C143.681 31.748 143.505 31.7568 143.282 31.7568C142.737 31.7568 142.342 31.5635 142.096 31.1768C141.967 30.9717 141.876 30.6816 141.823 30.3066C141.501 30.7285 141.038 31.0947 140.435 31.4053C139.831 31.7158 139.166 31.8711 138.439 31.8711C137.566 31.8711 136.852 31.6074 136.295 31.0801C135.744 30.5469 135.469 29.8818 135.469 29.085C135.469 28.2119 135.741 27.5352 136.286 27.0547C136.831 26.5742 137.546 26.2783 138.431 26.167L140.953 25.8506ZM146.93 26.958C146.93 27.9658 147.144 28.8096 147.571 29.4893C147.999 30.1689 148.685 30.5088 149.628 30.5088C150.36 30.5088 150.961 30.1953 151.43 29.5684C151.904 28.9355 152.142 28.0303 152.142 26.8525C152.142 25.6631 151.898 24.7842 151.412 24.2158C150.926 23.6416 150.325 23.3545 149.61 23.3545C148.813 23.3545 148.166 23.6592 147.668 24.2686C147.176 24.8779 146.93 25.7744 146.93 26.958ZM149.312 21.9746C150.032 21.9746 150.636 22.127 151.122 22.4316C151.403 22.6074 151.723 22.915 152.08 23.3545V18.5996H153.601V31.5547H152.177V30.2451C151.808 30.8252 151.371 31.2441 150.867 31.502C150.363 31.7598 149.786 31.8887 149.136 31.8887C148.087 31.8887 147.179 31.4492 146.411 30.5703C145.644 29.6855 145.26 28.5107 145.26 27.0459C145.26 25.6748 145.608 24.4883 146.306 23.4863C147.009 22.4785 148.011 21.9746 149.312 21.9746Z" fill="black" fill-opacity="0.87"/>
</svg>
