<svg width="81" height="25" viewBox="0 0 81 25" fill="none" xmlns="http://www.w3.org/2000/svg">
<path d="M12.285 13.0718V15.4463H3.06125V13.0718H12.285ZM3.80106 5.81689V23.1904H0.80603V5.81689H3.80106ZM14.5879 5.81689V23.1904H11.6048V5.81689H14.5879ZM23.5611 23.4291C22.6065 23.4291 21.7434 23.274 20.9717 22.9637C20.2081 22.6455 19.5558 22.204 19.0148 21.6392C18.4819 21.0744 18.0722 20.4102 17.7858 19.6465C17.4994 18.8828 17.3562 18.0595 17.3562 17.1765V16.6992C17.3562 15.6889 17.5034 14.7741 17.7977 13.9548C18.0921 13.1354 18.5017 12.4354 19.0268 11.8547C19.5518 11.266 20.1723 10.8166 20.8882 10.5063C21.6042 10.1961 22.3798 10.041 23.215 10.041C24.1378 10.041 24.9452 10.1961 25.6373 10.5063C26.3294 10.8166 26.9021 11.2541 27.3556 11.8189C27.8169 12.3757 28.159 13.04 28.3817 13.8116C28.6124 14.5832 28.7278 15.4344 28.7278 16.3651V17.5941H18.7523V15.5298H25.8879V15.3031C25.872 14.7861 25.7686 14.3008 25.5776 13.8474C25.3947 13.394 25.1123 13.028 24.7304 12.7496C24.3486 12.4712 23.8395 12.332 23.2031 12.332C22.7258 12.332 22.3002 12.4354 21.9263 12.6422C21.5604 12.8411 21.2541 13.1314 21.0075 13.5133C20.7609 13.8951 20.57 14.3565 20.4348 14.8974C20.3075 15.4304 20.2439 16.031 20.2439 16.6992V17.1765C20.2439 17.7413 20.3194 18.2663 20.4706 18.7516C20.6297 19.2289 20.8604 19.6465 21.1627 20.0045C21.4649 20.3625 21.8309 20.6449 22.2604 20.8517C22.69 21.0506 23.1792 21.15 23.7281 21.15C24.4202 21.15 25.0367 21.0108 25.5776 20.7324C26.1186 20.4539 26.5879 20.0602 26.9857 19.5511L28.5011 21.0187C28.2226 21.4244 27.8607 21.8142 27.4152 22.1881C26.9697 22.554 26.4248 22.8523 25.7805 23.083C25.1441 23.3137 24.4043 23.4291 23.5611 23.4291ZM34.0496 4.8623V23.1904H31.162V4.8623H34.0496ZM40.2783 4.8623V23.1904H37.3907V4.8623H40.2783ZM42.8796 16.8782V16.6038C42.8796 15.673 43.0148 14.8099 43.2853 14.0144C43.5557 13.211 43.9455 12.5149 44.4547 11.9263C44.9717 11.3296 45.6002 10.8683 46.34 10.5421C47.0877 10.208 47.931 10.041 48.8696 10.041C49.8163 10.041 50.6595 10.208 51.3993 10.5421C52.1471 10.8683 52.7795 11.3296 53.2965 11.9263C53.8136 12.5149 54.2074 13.211 54.4778 14.0144C54.7483 14.8099 54.8835 15.673 54.8835 16.6038V16.8782C54.8835 17.8089 54.7483 18.672 54.4778 19.4675C54.2074 20.263 53.8136 20.9591 53.2965 21.5557C52.7795 22.1444 52.151 22.6057 51.4112 22.9398C50.6714 23.266 49.8322 23.4291 48.8935 23.4291C47.9469 23.4291 47.0997 23.266 46.3519 22.9398C45.6121 22.6057 44.9837 22.1444 44.4666 21.5557C43.9495 20.9591 43.5557 20.263 43.2853 19.4675C43.0148 18.672 42.8796 17.8089 42.8796 16.8782ZM45.7553 16.6038V16.8782C45.7553 17.4589 45.8149 18.0078 45.9343 18.5249C46.0536 19.0419 46.2405 19.4954 46.4951 19.8852C46.7496 20.275 47.0758 20.5812 47.4735 20.804C47.8713 21.0267 48.3446 21.1381 48.8935 21.1381C49.4265 21.1381 49.8879 21.0267 50.2777 20.804C50.6754 20.5812 51.0016 20.275 51.2561 19.8852C51.5107 19.4954 51.6976 19.0419 51.8169 18.5249C51.9442 18.0078 52.0078 17.4589 52.0078 16.8782V16.6038C52.0078 16.031 51.9442 15.4901 51.8169 14.981C51.6976 14.4639 51.5067 14.0065 51.2442 13.6087C50.9896 13.211 50.6635 12.9007 50.2657 12.678C49.8759 12.4473 49.4106 12.332 48.8696 12.332C48.3287 12.332 47.8594 12.4473 47.4616 12.678C47.0718 12.9007 46.7496 13.211 46.4951 13.6087C46.2405 14.0065 46.0536 14.4639 45.9343 14.981C45.8149 15.4901 45.7553 16.031 45.7553 16.6038ZM55.8143 24.9011H80.2518V0.463553H55.8143V24.9011Z" fill="black" fill-opacity="0.87"/>
</svg>
