<svg width="203" height="40" viewBox="0 0 203 40" fill="none" xmlns="http://www.w3.org/2000/svg">
<path d="M53.8223 19.9922L40.1438 33.414C39.4181 32.8579 38.9948 31.994 39 31.0798V8.92794C38.9949 8.01376 39.4181 7.14981 40.1438 6.59375L53.8223 19.9922Z" fill="#2196F3"/>
<path d="M64.6764 19.9955C64.6765 21.0578 64.1061 22.0383 63.1826 22.5632L58.8876 24.9441L53.8223 19.9955L58.8875 15.0469L63.1825 17.4511C64.1002 17.9705 64.6702 18.941 64.6764 19.9955Z" fill="#FFC107"/>
<path d="M58.8874 24.9447L43.2948 33.6513C42.8629 33.879 42.3824 33.9992 41.8942 34.0015C41.3837 34.0112 40.8812 33.8733 40.447 33.6046C40.3427 33.5476 40.2414 33.4852 40.1436 33.4178L53.8222 19.9961L58.8874 24.9447Z" fill="#F44336"/>
<path d="M58.8873 15.0457L53.8221 19.9942L40.1436 6.59572C40.2415 6.52832 40.3427 6.46595 40.447 6.40894C41.3184 5.8809 42.4065 5.86306 43.2948 6.36222L58.8873 15.0457Z" fill="#4CAF50"/>
<rect x="0.25" y="0.25" width="202.5" height="39.5" rx="19.75" stroke="#00BC84" stroke-width="0.5"/>
<path opacity="0.38" d="M78.0898 4.11328C78.6289 4.11328 79.0951 4.21745 79.4883 4.42578C80.0586 4.72526 80.4076 5.25 80.5352 6H79.7656C79.6719 5.58073 79.4779 5.27604 79.1836 5.08594C78.8893 4.89323 78.5182 4.79688 78.0703 4.79688C77.5391 4.79688 77.0911 4.99609 76.7266 5.39453C76.3646 5.79297 76.1836 6.38672 76.1836 7.17578C76.1836 7.85807 76.3333 8.41406 76.6328 8.84375C76.9323 9.27083 77.4206 9.48438 78.0977 9.48438C78.6159 9.48438 79.0443 9.33464 79.3828 9.03516C79.724 8.73307 79.8984 8.24609 79.9062 7.57422H78.1094V6.92969H80.6289V10H80.1289L79.9414 9.26172C79.6784 9.55078 79.4453 9.7513 79.2422 9.86328C78.901 10.056 78.4674 10.1523 77.9414 10.1523C77.2617 10.1523 76.6771 9.93229 76.1875 9.49219C75.6536 8.9401 75.3867 8.18229 75.3867 7.21875C75.3867 6.25781 75.6471 5.49349 76.168 4.92578C76.6628 4.38411 77.3034 4.11328 78.0898 4.11328ZM83.4844 5.72266C83.7812 5.72266 84.069 5.79297 84.3477 5.93359C84.6263 6.07161 84.8385 6.2513 84.9844 6.47266C85.125 6.68359 85.2188 6.92969 85.2656 7.21094C85.3073 7.40365 85.3281 7.71094 85.3281 8.13281H82.2617C82.2747 8.55729 82.375 8.89844 82.5625 9.15625C82.75 9.41146 83.0404 9.53906 83.4336 9.53906C83.8008 9.53906 84.0938 9.41797 84.3125 9.17578C84.4375 9.03516 84.526 8.8724 84.5781 8.6875H85.2695C85.2513 8.84115 85.1901 9.01302 85.0859 9.20312C84.9844 9.39062 84.8698 9.54427 84.7422 9.66406C84.5286 9.8724 84.2643 10.013 83.9492 10.0859C83.7799 10.1276 83.5885 10.1484 83.375 10.1484C82.8542 10.1484 82.4128 9.95964 82.0508 9.58203C81.6888 9.20182 81.5078 8.67057 81.5078 7.98828C81.5078 7.31641 81.6901 6.77083 82.0547 6.35156C82.4193 5.93229 82.8958 5.72266 83.4844 5.72266ZM84.6055 7.57422C84.5768 7.26953 84.5104 7.02604 84.4062 6.84375C84.2135 6.50521 83.8919 6.33594 83.4414 6.33594C83.1185 6.33594 82.8477 6.45312 82.6289 6.6875C82.4102 6.91927 82.2943 7.21484 82.2812 7.57422H84.6055ZM86.3359 4.64844H87.0469V5.81641H87.7148V6.39062H87.0469V9.12109C87.0469 9.26693 87.0964 9.36458 87.1953 9.41406C87.25 9.44271 87.3411 9.45703 87.4688 9.45703C87.5026 9.45703 87.5391 9.45703 87.5781 9.45703C87.6172 9.45443 87.6628 9.45052 87.7148 9.44531V10C87.6341 10.0234 87.5495 10.0404 87.4609 10.0508C87.375 10.0612 87.2812 10.0664 87.1797 10.0664C86.8516 10.0664 86.6289 9.98307 86.5117 9.81641C86.3945 9.64714 86.3359 9.42839 86.3359 9.16016V6.39062H85.7695V5.81641H86.3359V4.64844ZM93.25 7.64844L92.3789 5.11328L91.4531 7.64844H93.25ZM91.9727 4.26172H92.8516L94.9336 10H94.082L93.5 8.28125H91.2305L90.6094 10H89.8125L91.9727 4.26172ZM97.3125 9.52734C97.6406 9.52734 97.9128 9.39062 98.1289 9.11719C98.3477 8.84115 98.457 8.42969 98.457 7.88281C98.457 7.54948 98.4089 7.26302 98.3125 7.02344C98.1302 6.5625 97.7969 6.33203 97.3125 6.33203C96.8255 6.33203 96.4922 6.57552 96.3125 7.0625C96.2161 7.32292 96.168 7.65365 96.168 8.05469C96.168 8.3776 96.2161 8.65234 96.3125 8.87891C96.4948 9.3112 96.8281 9.52734 97.3125 9.52734ZM95.4922 5.83594H96.1758V6.39062C96.3164 6.20052 96.4701 6.05339 96.6367 5.94922C96.8737 5.79297 97.1523 5.71484 97.4727 5.71484C97.9466 5.71484 98.349 5.89714 98.6797 6.26172C99.0104 6.6237 99.1758 7.14193 99.1758 7.81641C99.1758 8.72786 98.9375 9.37891 98.4609 9.76953C98.1589 10.0169 97.8073 10.1406 97.4062 10.1406C97.0911 10.1406 96.8268 10.0716 96.6133 9.93359C96.4883 9.85547 96.349 9.72135 96.1953 9.53125V11.668H95.4922V5.83594ZM101.766 9.52734C102.094 9.52734 102.366 9.39062 102.582 9.11719C102.801 8.84115 102.91 8.42969 102.91 7.88281C102.91 7.54948 102.862 7.26302 102.766 7.02344C102.583 6.5625 102.25 6.33203 101.766 6.33203C101.279 6.33203 100.945 6.57552 100.766 7.0625C100.669 7.32292 100.621 7.65365 100.621 8.05469C100.621 8.3776 100.669 8.65234 100.766 8.87891C100.948 9.3112 101.281 9.52734 101.766 9.52734ZM99.9453 5.83594H100.629V6.39062C100.77 6.20052 100.923 6.05339 101.09 5.94922C101.327 5.79297 101.605 5.71484 101.926 5.71484C102.4 5.71484 102.802 5.89714 103.133 6.26172C103.464 6.6237 103.629 7.14193 103.629 7.81641C103.629 8.72786 103.391 9.37891 102.914 9.76953C102.612 10.0169 102.26 10.1406 101.859 10.1406C101.544 10.1406 101.28 10.0716 101.066 9.93359C100.941 9.85547 100.802 9.72135 100.648 9.53125V11.668H99.9453V5.83594ZM108.34 9.54688C108.806 9.54688 109.125 9.37109 109.297 9.01953C109.471 8.66536 109.559 8.27214 109.559 7.83984C109.559 7.44922 109.496 7.13151 109.371 6.88672C109.173 6.5013 108.832 6.30859 108.348 6.30859C107.918 6.30859 107.605 6.47266 107.41 6.80078C107.215 7.12891 107.117 7.52474 107.117 7.98828C107.117 8.43359 107.215 8.80469 107.41 9.10156C107.605 9.39844 107.915 9.54688 108.34 9.54688ZM108.367 5.69531C108.906 5.69531 109.362 5.875 109.734 6.23438C110.107 6.59375 110.293 7.1224 110.293 7.82031C110.293 8.49479 110.129 9.05208 109.801 9.49219C109.473 9.93229 108.964 10.1523 108.273 10.1523C107.698 10.1523 107.241 9.95833 106.902 9.57031C106.564 9.17969 106.395 8.65625 106.395 8C106.395 7.29688 106.573 6.73698 106.93 6.32031C107.286 5.90365 107.766 5.69531 108.367 5.69531ZM111.133 5.81641H111.801V6.41016C111.999 6.16536 112.208 5.98958 112.43 5.88281C112.651 5.77604 112.897 5.72266 113.168 5.72266C113.762 5.72266 114.163 5.92969 114.371 6.34375C114.486 6.57031 114.543 6.89453 114.543 7.31641V10H113.828V7.36328C113.828 7.10807 113.79 6.90234 113.715 6.74609C113.59 6.48568 113.363 6.35547 113.035 6.35547C112.868 6.35547 112.732 6.3724 112.625 6.40625C112.432 6.46354 112.263 6.57812 112.117 6.75C112 6.88802 111.923 7.03125 111.887 7.17969C111.853 7.32552 111.836 7.53516 111.836 7.80859V10H111.133V5.81641Z" fill="black"/>
<path d="M76.3779 15.8193H82.1875C83.3359 15.8193 84.2617 16.1445 84.9648 16.7949C85.668 17.4395 86.0195 18.3477 86.0195 19.5195C86.0195 20.5273 85.7061 21.4062 85.0791 22.1562C84.4521 22.9004 83.4883 23.2725 82.1875 23.2725H78.127V28.7305H76.3779V15.8193ZM84.2529 19.5283C84.2529 18.5791 83.9014 17.9346 83.1982 17.5947C82.8115 17.4131 82.2812 17.3223 81.6074 17.3223H78.127V21.7959H81.6074C82.3926 21.7959 83.0283 21.6289 83.5146 21.2949C84.0068 20.9609 84.2529 20.3721 84.2529 19.5283ZM88.0498 15.8193H89.6318V28.7305H88.0498V15.8193ZM93.2266 26.2256C93.2266 26.6826 93.3936 27.043 93.7275 27.3066C94.0615 27.5703 94.457 27.7021 94.9141 27.7021C95.4707 27.7021 96.0098 27.5732 96.5312 27.3154C97.4102 26.8877 97.8496 26.1875 97.8496 25.2148V23.9404C97.6562 24.0635 97.4072 24.166 97.1025 24.248C96.7979 24.3301 96.499 24.3887 96.2061 24.4238L95.248 24.5469C94.6738 24.623 94.2432 24.7432 93.9561 24.9072C93.4697 25.1826 93.2266 25.6221 93.2266 26.2256ZM97.0586 23.0264C97.4219 22.9795 97.665 22.8271 97.7881 22.5693C97.8584 22.4287 97.8936 22.2266 97.8936 21.9629C97.8936 21.4238 97.7002 21.0342 97.3135 20.7939C96.9326 20.5479 96.3848 20.4248 95.6699 20.4248C94.8438 20.4248 94.2578 20.6475 93.9121 21.0928C93.7188 21.3389 93.5928 21.7051 93.5342 22.1914H92.0576C92.0869 21.0312 92.4619 20.2256 93.1826 19.7744C93.9092 19.3174 94.75 19.0889 95.7051 19.0889C96.8125 19.0889 97.7119 19.2998 98.4033 19.7217C99.0889 20.1436 99.4316 20.7998 99.4316 21.6904V27.1133C99.4316 27.2773 99.4639 27.4092 99.5283 27.5088C99.5986 27.6084 99.7422 27.6582 99.959 27.6582C100.029 27.6582 100.108 27.6553 100.196 27.6494C100.284 27.6377 100.378 27.623 100.478 27.6055V28.7744C100.231 28.8447 100.044 28.8887 99.915 28.9062C99.7861 28.9238 99.6104 28.9326 99.3877 28.9326C98.8428 28.9326 98.4473 28.7393 98.2012 28.3525C98.0723 28.1475 97.9814 27.8574 97.9287 27.4824C97.6064 27.9043 97.1436 28.2705 96.54 28.5811C95.9365 28.8916 95.2715 29.0469 94.5449 29.0469C93.6719 29.0469 92.957 28.7832 92.4004 28.2559C91.8496 27.7227 91.5742 27.0576 91.5742 26.2607C91.5742 25.3877 91.8467 24.7109 92.3916 24.2305C92.9365 23.75 93.6514 23.4541 94.5361 23.3428L97.0586 23.0264ZM107.913 19.3174H109.662C109.439 19.9209 108.944 21.2979 108.177 23.4482C107.603 25.0654 107.122 26.3838 106.735 27.4033C105.821 29.8057 105.177 31.2705 104.802 31.7979C104.427 32.3252 103.782 32.5889 102.868 32.5889C102.646 32.5889 102.473 32.5801 102.35 32.5625C102.232 32.5449 102.086 32.5127 101.91 32.4658V31.0244C102.186 31.1006 102.385 31.1475 102.508 31.165C102.631 31.1826 102.739 31.1914 102.833 31.1914C103.126 31.1914 103.34 31.1416 103.475 31.042C103.615 30.9482 103.732 30.8311 103.826 30.6904C103.855 30.6436 103.961 30.4033 104.143 29.9697C104.324 29.5361 104.456 29.2139 104.538 29.0029L101.058 19.3174H102.851L105.373 26.9814L107.913 19.3174ZM111.974 25.7773C112.021 26.3047 112.152 26.709 112.369 26.9902C112.768 27.5 113.459 27.7549 114.443 27.7549C115.029 27.7549 115.545 27.6289 115.99 27.377C116.436 27.1191 116.658 26.7236 116.658 26.1904C116.658 25.7861 116.479 25.4785 116.122 25.2676C115.894 25.1387 115.442 24.9893 114.769 24.8193L113.512 24.5029C112.709 24.3037 112.117 24.0811 111.736 23.835C111.057 23.4072 110.717 22.8154 110.717 22.0596C110.717 21.1689 111.036 20.4482 111.675 19.8975C112.319 19.3467 113.184 19.0713 114.268 19.0713C115.686 19.0713 116.708 19.4873 117.335 20.3193C117.728 20.8467 117.918 21.415 117.906 22.0244H116.412C116.383 21.667 116.257 21.3418 116.034 21.0488C115.671 20.6328 115.041 20.4248 114.145 20.4248C113.547 20.4248 113.093 20.5391 112.782 20.7676C112.478 20.9961 112.325 21.2979 112.325 21.6729C112.325 22.083 112.527 22.4111 112.932 22.6572C113.166 22.8037 113.512 22.9326 113.969 23.0439L115.015 23.2988C116.151 23.5742 116.913 23.8408 117.3 24.0986C117.915 24.5029 118.223 25.1387 118.223 26.0059C118.223 26.8438 117.903 27.5674 117.265 28.1768C116.632 28.7861 115.665 29.0908 114.364 29.0908C112.964 29.0908 111.971 28.7744 111.385 28.1416C110.805 27.5029 110.494 26.7148 110.453 25.7773H111.974ZM120.35 16.6895H121.949V19.3174H123.452V20.6094H121.949V26.7529C121.949 27.0811 122.061 27.3008 122.283 27.4121C122.406 27.4766 122.611 27.5088 122.898 27.5088C122.975 27.5088 123.057 27.5088 123.145 27.5088C123.232 27.5029 123.335 27.4941 123.452 27.4824V28.7305C123.271 28.7832 123.08 28.8213 122.881 28.8447C122.688 28.8682 122.477 28.8799 122.248 28.8799C121.51 28.8799 121.009 28.6924 120.745 28.3174C120.481 27.9365 120.35 27.4443 120.35 26.8408V20.6094H119.075V19.3174H120.35V16.6895ZM128.778 27.7109C129.827 27.7109 130.545 27.3154 130.932 26.5244C131.324 25.7275 131.521 24.8428 131.521 23.8701C131.521 22.9912 131.38 22.2764 131.099 21.7256C130.653 20.8584 129.886 20.4248 128.796 20.4248C127.829 20.4248 127.126 20.7939 126.687 21.5322C126.247 22.2705 126.027 23.1611 126.027 24.2041C126.027 25.2061 126.247 26.041 126.687 26.709C127.126 27.377 127.823 27.7109 128.778 27.7109ZM128.84 19.0449C130.053 19.0449 131.078 19.4492 131.916 20.2578C132.754 21.0664 133.173 22.2559 133.173 23.8262C133.173 25.3438 132.804 26.5977 132.065 27.5879C131.327 28.5781 130.182 29.0732 128.629 29.0732C127.334 29.0732 126.306 28.6367 125.544 27.7637C124.782 26.8848 124.401 25.707 124.401 24.2305C124.401 22.6484 124.803 21.3887 125.605 20.4512C126.408 19.5137 127.486 19.0449 128.84 19.0449ZM135.106 19.3174H136.609V20.9434C136.732 20.627 137.034 20.2432 137.515 19.792C137.995 19.335 138.549 19.1064 139.176 19.1064C139.205 19.1064 139.255 19.1094 139.325 19.1152C139.396 19.1211 139.516 19.1328 139.686 19.1504V20.8203C139.592 20.8027 139.504 20.791 139.422 20.7852C139.346 20.7793 139.261 20.7764 139.167 20.7764C138.37 20.7764 137.758 21.0342 137.33 21.5498C136.902 22.0596 136.688 22.6484 136.688 23.3164V28.7305H135.106V19.3174ZM144.977 19.1064C145.645 19.1064 146.292 19.2646 146.919 19.5811C147.546 19.8916 148.023 20.2959 148.352 20.7939C148.668 21.2686 148.879 21.8223 148.984 22.4551C149.078 22.8887 149.125 23.5801 149.125 24.5293H142.226C142.255 25.4844 142.48 26.252 142.902 26.832C143.324 27.4062 143.978 27.6934 144.862 27.6934C145.688 27.6934 146.348 27.4209 146.84 26.876C147.121 26.5596 147.32 26.1934 147.438 25.7773H148.993C148.952 26.123 148.814 26.5098 148.58 26.9375C148.352 27.3594 148.094 27.7051 147.807 27.9746C147.326 28.4434 146.731 28.7598 146.022 28.9238C145.642 29.0176 145.211 29.0645 144.73 29.0645C143.559 29.0645 142.565 28.6396 141.751 27.79C140.937 26.9346 140.529 25.7393 140.529 24.2041C140.529 22.6924 140.939 21.4648 141.76 20.5215C142.58 19.5781 143.652 19.1064 144.977 19.1064ZM147.499 23.2725C147.435 22.5869 147.285 22.0391 147.051 21.6289C146.617 20.8672 145.894 20.4863 144.88 20.4863C144.153 20.4863 143.544 20.75 143.052 21.2773C142.56 21.7988 142.299 22.4639 142.27 23.2725H147.499Z" fill="black" fill-opacity="0.87"/>
</svg>
