<svg width="809" height="376" viewBox="0 0 809 376" fill="none" xmlns="http://www.w3.org/2000/svg">
<rect width="809" height="376" rx="32" fill="#00BC84" fill-opacity="0.1"/>
<path opacity="0.81" d="M683.262 104.984L680.022 125.828C683.262 123.344 687.906 121.076 694.71 121.076C707.022 121.076 719.658 129.716 719.658 145.376C719.658 153.8 715.878 172.052 692.118 172.052C682.182 172.052 669.438 168.056 667.602 151.1H677.43C678.402 159.956 684.99 163.844 693.522 163.844C703.35 163.844 709.506 155.96 709.506 146.456C709.506 135.548 702.054 129.608 692.658 129.608C687.15 129.608 682.182 132.2 678.618 136.844L670.41 136.412L676.134 95.696H715.446V104.984H683.262ZM740.747 116.273V102.276H745.477V116.273H759.474V121.003H745.477V135H740.747V121.003H726.685V116.273H740.747Z" fill="black"/>
<path d="M76.66 123.912V135H73.168V109.152H85.12C89.368 109.152 93.616 110.628 93.616 116.1C93.616 119.916 91.672 121.32 90.016 122.292C91.492 122.904 92.968 123.552 93.112 127.152L93.328 131.832C93.364 133.272 93.544 133.812 94.624 134.424V135H90.34C89.836 133.416 89.728 129.492 89.728 128.52C89.728 126.396 89.296 123.912 85.12 123.912H76.66ZM76.66 112.14V120.924H84.76C87.316 120.924 90.016 120.276 90.016 116.46C90.016 112.464 87.1 112.14 85.372 112.14H76.66ZM111.136 129.096H114.304C114.196 129.996 113.332 132.66 110.956 134.244C110.092 134.82 108.868 135.54 105.844 135.54C100.552 135.54 97.4205 131.544 97.4205 126.108C97.4205 120.276 100.228 115.632 106.456 115.632C111.892 115.632 114.556 119.952 114.556 126.612H100.804C100.804 130.536 102.64 132.804 106.276 132.804C109.264 132.804 111.028 130.5 111.136 129.096ZM100.804 124.092H111.28C111.1 121.176 109.876 118.476 106.024 118.476C103.108 118.476 100.804 121.176 100.804 124.092ZM132.076 121.536H129.016C128.98 120.348 128.548 118.368 124.552 118.368C123.58 118.368 120.808 118.692 120.808 121.032C120.808 122.58 121.78 122.94 124.228 123.552L127.396 124.344C131.32 125.316 132.688 126.756 132.688 129.312C132.688 133.2 129.484 135.54 125.236 135.54C117.784 135.54 117.244 131.22 117.136 128.952H120.196C120.304 130.428 120.736 132.804 125.2 132.804C127.468 132.804 129.52 131.904 129.52 129.816C129.52 128.304 128.476 127.8 125.776 127.116L122.104 126.216C119.476 125.568 117.748 124.236 117.748 121.644C117.748 117.504 121.168 115.632 124.876 115.632C131.608 115.632 132.076 120.6 132.076 121.536ZM149.14 129.096H152.308C152.2 129.996 151.336 132.66 148.96 134.244C148.096 134.82 146.872 135.54 143.848 135.54C138.556 135.54 135.424 131.544 135.424 126.108C135.424 120.276 138.232 115.632 144.46 115.632C149.896 115.632 152.56 119.952 152.56 126.612H138.808C138.808 130.536 140.644 132.804 144.28 132.804C147.268 132.804 149.032 130.5 149.14 129.096ZM138.808 124.092H149.284C149.104 121.176 147.88 118.476 144.028 118.476C141.112 118.476 138.808 121.176 138.808 124.092ZM159.136 121.896H156.22C156.364 117.396 159.352 115.632 163.996 115.632C165.508 115.632 170.98 116.064 170.98 120.888V131.724C170.98 132.516 171.376 132.84 172.024 132.84C172.312 132.84 172.708 132.768 173.068 132.696V135C172.528 135.144 172.06 135.36 171.34 135.36C168.532 135.36 168.1 133.92 167.992 132.48C166.768 133.812 164.86 135.54 161.188 135.54C157.732 135.54 155.284 133.344 155.284 130.104C155.284 128.52 155.752 124.848 161.008 124.2L166.228 123.552C166.984 123.48 167.884 123.192 167.884 121.32C167.884 119.34 166.444 118.26 163.456 118.26C159.856 118.26 159.352 120.456 159.136 121.896ZM167.812 128.484V125.388C167.308 125.784 166.516 126.072 162.592 126.576C161.044 126.792 158.56 127.26 158.56 129.636C158.56 131.688 159.604 132.912 161.98 132.912C164.932 132.912 167.812 131.004 167.812 128.484ZM179.932 124.056V135H176.764V116.172H179.752V119.304H179.824C181.084 117.108 182.74 115.632 185.116 115.632C185.512 115.632 185.692 115.668 185.944 115.74V119.016H184.756C181.804 119.016 179.932 121.32 179.932 124.056ZM203.152 122.508H200.092C199.696 119.988 198.292 118.476 195.628 118.476C191.704 118.476 190.444 122.22 190.444 125.568C190.444 128.808 191.236 132.804 195.592 132.804C197.716 132.804 199.552 131.22 200.092 128.34H203.152C202.828 131.328 200.992 135.54 195.484 135.54C190.192 135.54 187.06 131.544 187.06 126.108C187.06 120.276 189.868 115.632 196.096 115.632C201.028 115.632 202.9 119.232 203.152 122.508ZM221.656 122.184V135H218.488V122.688C218.488 120.132 217.768 118.476 214.744 118.476C212.152 118.476 209.488 119.988 209.488 124.74V135H206.32V109.152H209.488V118.692H209.56C210.46 117.504 212.044 115.632 215.068 115.632C217.984 115.632 221.656 116.82 221.656 122.184ZM240.592 112.14V121.104H247.54C250.672 121.104 252.796 119.952 252.796 116.46C252.796 113.184 250.564 112.14 247.684 112.14H240.592ZM240.592 124.092V135H237.1V109.152H248.728C253.516 109.152 256.396 112.248 256.396 116.424C256.396 120.024 254.344 124.092 248.728 124.092H240.592ZM261.722 121.896H258.806C258.95 117.396 261.938 115.632 266.582 115.632C268.094 115.632 273.566 116.064 273.566 120.888V131.724C273.566 132.516 273.962 132.84 274.61 132.84C274.898 132.84 275.294 132.768 275.654 132.696V135C275.114 135.144 274.646 135.36 273.926 135.36C271.118 135.36 270.686 133.92 270.578 132.48C269.354 133.812 267.446 135.54 263.774 135.54C260.318 135.54 257.87 133.344 257.87 130.104C257.87 128.52 258.338 124.848 263.594 124.2L268.814 123.552C269.57 123.48 270.47 123.192 270.47 121.32C270.47 119.34 269.03 118.26 266.042 118.26C262.442 118.26 261.938 120.456 261.722 121.896ZM270.398 128.484V125.388C269.894 125.784 269.102 126.072 265.178 126.576C263.63 126.792 261.146 127.26 261.146 129.636C261.146 131.688 262.19 132.912 264.566 132.912C267.518 132.912 270.398 131.004 270.398 128.484ZM281.69 126.468C281.69 131.472 284.822 132.804 286.838 132.804C290.294 132.804 291.914 129.672 291.914 125.532C291.914 123.12 291.662 118.476 286.766 118.476C282.194 118.476 281.69 123.408 281.69 126.468ZM278.666 142.452V116.172H281.654V118.836H281.726C282.482 117.756 283.922 115.632 287.342 115.632C292.346 115.632 295.19 119.736 295.19 125.028C295.19 129.528 293.318 135.54 286.91 135.54C284.39 135.54 282.734 134.352 281.906 133.02H281.834V142.452H278.666ZM311.738 129.096H314.906C314.798 129.996 313.934 132.66 311.558 134.244C310.694 134.82 309.47 135.54 306.446 135.54C301.154 135.54 298.022 131.544 298.022 126.108C298.022 120.276 300.83 115.632 307.058 115.632C312.494 115.632 315.158 119.952 315.158 126.612H301.406C301.406 130.536 303.242 132.804 306.878 132.804C309.866 132.804 311.63 130.5 311.738 129.096ZM301.406 124.092H311.882C311.702 121.176 310.478 118.476 306.626 118.476C303.71 118.476 301.406 121.176 301.406 124.092ZM322.526 124.056V135H319.358V116.172H322.346V119.304H322.418C323.678 117.108 325.334 115.632 327.71 115.632C328.106 115.632 328.286 115.668 328.538 115.74V119.016H327.35C324.398 119.016 322.526 121.32 322.526 124.056ZM344.666 121.536H341.606C341.57 120.348 341.138 118.368 337.142 118.368C336.17 118.368 333.398 118.692 333.398 121.032C333.398 122.58 334.37 122.94 336.818 123.552L339.986 124.344C343.91 125.316 345.278 126.756 345.278 129.312C345.278 133.2 342.074 135.54 337.826 135.54C330.374 135.54 329.834 131.22 329.726 128.952H332.786C332.894 130.428 333.326 132.804 337.79 132.804C340.058 132.804 342.11 131.904 342.11 129.816C342.11 128.304 341.066 127.8 338.366 127.116L334.694 126.216C332.066 125.568 330.338 124.236 330.338 121.644C330.338 117.504 333.758 115.632 337.466 115.632C344.198 115.632 344.666 120.6 344.666 121.536ZM356.594 137.52H392.594V101.52H356.594V137.52Z" fill="black"/>
<path opacity="0.61" d="M78.7967 206.384C78.7967 208.472 77.0927 210.152 75.0047 210.152C72.9167 210.152 71.2367 208.496 71.2367 206.384C71.2367 204.296 72.8927 202.592 75.0047 202.592C77.0927 202.592 78.7967 204.296 78.7967 206.384ZM97.512 197.768V215H95.184V197.768H97.512ZM101.24 215V202.448H103.232V204.224H103.28C103.736 203.552 104.816 202.088 107.072 202.088C109.328 202.088 110.048 203.456 110.408 204.128C111.464 202.952 112.304 202.088 114.248 202.088C115.592 202.088 118.136 202.784 118.136 206.312V215H116.024V206.888C116.024 205.16 115.496 203.984 113.696 203.984C111.92 203.984 110.744 205.664 110.744 207.344V215H108.632V206.312C108.632 205.256 108.224 203.984 106.664 203.984C105.464 203.984 103.352 204.752 103.352 208.16V215H101.24ZM123.104 206.264H121.16C121.256 203.264 123.248 202.088 126.344 202.088C127.352 202.088 131 202.376 131 205.592V212.816C131 213.344 131.264 213.56 131.696 213.56C131.888 213.56 132.152 213.512 132.392 213.464V215C132.032 215.096 131.72 215.24 131.24 215.24C129.368 215.24 129.08 214.28 129.008 213.32C128.192 214.208 126.92 215.36 124.472 215.36C122.168 215.36 120.536 213.896 120.536 211.736C120.536 210.68 120.848 208.232 124.352 207.8L127.832 207.368C128.336 207.32 128.936 207.128 128.936 205.88C128.936 204.56 127.976 203.84 125.984 203.84C123.584 203.84 123.248 205.304 123.104 206.264ZM128.888 210.656V208.592C128.552 208.856 128.024 209.048 125.408 209.384C124.376 209.528 122.72 209.84 122.72 211.424C122.72 212.792 123.416 213.608 125 213.608C126.968 213.608 128.888 212.336 128.888 210.656ZM136.152 208.688C136.152 211.448 137.232 213.536 139.536 213.536C140.88 213.536 142.968 212.648 142.968 209.312C142.968 207.272 142.632 203.984 139.584 203.984C136.32 203.984 136.152 207.08 136.152 208.688ZM144.984 202.448V213.968C144.984 215.768 144.96 220.28 139.152 220.28C137.664 220.28 134.76 219.872 134.352 216.536H136.464C136.848 218.528 138.792 218.528 139.296 218.528C142.944 218.528 142.872 215.6 142.872 214.112V213.584H142.824V213.68C142.272 214.568 141.168 215.36 139.488 215.36C135.216 215.36 133.968 211.352 133.968 208.352C133.968 204.824 135.864 202.088 139.2 202.088C141.48 202.088 142.44 203.504 142.944 204.224H142.992V202.448H144.984ZM156.448 211.064H158.56C158.488 211.664 157.912 213.44 156.328 214.496C155.752 214.88 154.936 215.36 152.92 215.36C149.392 215.36 147.304 212.696 147.304 209.072C147.304 205.184 149.176 202.088 153.328 202.088C156.952 202.088 158.728 204.968 158.728 209.408H149.56C149.56 212.024 150.784 213.536 153.208 213.536C155.2 213.536 156.376 212 156.448 211.064ZM149.56 207.728H156.544C156.424 205.784 155.608 203.984 153.04 203.984C151.096 203.984 149.56 205.784 149.56 207.728ZM166.616 207.272V209.432H160.736V207.272H166.616ZM173.84 204.2H171.824V212.36C171.824 213.344 172.664 213.344 173.096 213.344H173.84V215C173.072 215.072 172.472 215.168 172.256 215.168C170.168 215.168 169.712 213.992 169.712 212.48V204.2H168.008V202.448H169.712V198.944H171.824V202.448H173.84V204.2ZM175.192 208.712C175.192 205.472 177.016 202.088 181.024 202.088C185.032 202.088 186.856 205.472 186.856 208.712C186.856 211.952 185.032 215.336 181.024 215.336C177.016 215.336 175.192 211.952 175.192 208.712ZM177.376 208.712C177.376 210.392 178 213.512 181.024 213.512C184.048 213.512 184.672 210.392 184.672 208.712C184.672 207.032 184.048 203.912 181.024 203.912C178 203.912 177.376 207.032 177.376 208.712ZM194.624 207.272V209.432H188.744V207.272H194.624ZM200.192 197.768V215H197.864V197.768H200.192ZM203.919 215V202.448H205.911V204.224H205.959C206.415 203.552 207.495 202.088 209.751 202.088C212.007 202.088 212.727 203.456 213.087 204.128C214.143 202.952 214.983 202.088 216.927 202.088C218.271 202.088 220.815 202.784 220.815 206.312V215H218.703V206.888C218.703 205.16 218.175 203.984 216.375 203.984C214.599 203.984 213.423 205.664 213.423 207.344V215H211.311V206.312C211.311 205.256 210.903 203.984 209.343 203.984C208.143 203.984 206.031 204.752 206.031 208.16V215H203.919ZM225.784 206.264H223.84C223.936 203.264 225.928 202.088 229.024 202.088C230.032 202.088 233.68 202.376 233.68 205.592V212.816C233.68 213.344 233.944 213.56 234.376 213.56C234.568 213.56 234.832 213.512 235.072 213.464V215C234.712 215.096 234.4 215.24 233.92 215.24C232.048 215.24 231.76 214.28 231.688 213.32C230.872 214.208 229.6 215.36 227.152 215.36C224.848 215.36 223.216 213.896 223.216 211.736C223.216 210.68 223.528 208.232 227.032 207.8L230.512 207.368C231.016 207.32 231.616 207.128 231.616 205.88C231.616 204.56 230.656 203.84 228.664 203.84C226.264 203.84 225.928 205.304 225.784 206.264ZM231.568 210.656V208.592C231.232 208.856 230.704 209.048 228.088 209.384C227.056 209.528 225.4 209.84 225.4 211.424C225.4 212.792 226.096 213.608 227.68 213.608C229.648 213.608 231.568 212.336 231.568 210.656ZM238.832 208.688C238.832 211.448 239.912 213.536 242.216 213.536C243.56 213.536 245.648 212.648 245.648 209.312C245.648 207.272 245.312 203.984 242.264 203.984C239 203.984 238.832 207.08 238.832 208.688ZM247.664 202.448V213.968C247.664 215.768 247.64 220.28 241.832 220.28C240.344 220.28 237.44 219.872 237.032 216.536H239.144C239.528 218.528 241.472 218.528 241.976 218.528C245.624 218.528 245.552 215.6 245.552 214.112V213.584H245.504V213.68C244.952 214.568 243.848 215.36 242.168 215.36C237.896 215.36 236.648 211.352 236.648 208.352C236.648 204.824 238.544 202.088 241.88 202.088C244.16 202.088 245.12 203.504 245.624 204.224H245.672V202.448H247.664ZM259.127 211.064H261.239C261.167 211.664 260.591 213.44 259.007 214.496C258.431 214.88 257.615 215.36 255.599 215.36C252.071 215.36 249.983 212.696 249.983 209.072C249.983 205.184 251.855 202.088 256.007 202.088C259.631 202.088 261.407 204.968 261.407 209.408H252.239C252.239 212.024 253.463 213.536 255.887 213.536C257.879 213.536 259.055 212 259.127 211.064ZM252.239 207.728H259.223C259.103 205.784 258.287 203.984 255.719 203.984C253.775 203.984 252.239 205.784 252.239 207.728ZM268.18 199.832V197.768H282.172V199.832H276.34V215H274.012V199.832H268.18ZM283.593 207.704V215H281.481V202.448H283.473V204.536H283.521C284.361 203.072 285.465 202.088 287.049 202.088C287.313 202.088 287.433 202.112 287.601 202.16V204.344H286.809C284.841 204.344 283.593 205.88 283.593 207.704ZM290.823 206.264H288.879C288.975 203.264 290.967 202.088 294.063 202.088C295.071 202.088 298.719 202.376 298.719 205.592V212.816C298.719 213.344 298.983 213.56 299.415 213.56C299.607 213.56 299.871 213.512 300.111 213.464V215C299.751 215.096 299.439 215.24 298.959 215.24C297.087 215.24 296.799 214.28 296.727 213.32C295.911 214.208 294.639 215.36 292.191 215.36C289.887 215.36 288.255 213.896 288.255 211.736C288.255 210.68 288.567 208.232 292.071 207.8L295.551 207.368C296.055 207.32 296.655 207.128 296.655 205.88C296.655 204.56 295.695 203.84 293.703 203.84C291.303 203.84 290.967 205.304 290.823 206.264ZM296.607 210.656V208.592C296.271 208.856 295.743 209.048 293.127 209.384C292.095 209.528 290.439 209.84 290.439 211.424C290.439 212.792 291.135 213.608 292.719 213.608C294.687 213.608 296.607 212.336 296.607 210.656ZM312.511 206.456V215H310.399V207.272C310.399 205.088 309.775 203.984 307.711 203.984C306.511 203.984 304.399 204.752 304.399 208.16V215H302.287V202.448H304.279V204.224H304.327C304.783 203.552 305.959 202.088 308.119 202.088C310.063 202.088 312.511 202.88 312.511 206.456ZM324.791 206.024H322.751C322.727 205.232 322.439 203.912 319.775 203.912C319.127 203.912 317.279 204.128 317.279 205.688C317.279 206.72 317.927 206.96 319.559 207.368L321.671 207.896C324.287 208.544 325.199 209.504 325.199 211.208C325.199 213.8 323.063 215.36 320.23 215.36C315.263 215.36 314.903 212.48 314.831 210.968H316.871C316.943 211.952 317.23 213.536 320.207 213.536C321.719 213.536 323.087 212.936 323.087 211.544C323.087 210.536 322.391 210.2 320.591 209.744L318.143 209.144C316.391 208.712 315.239 207.824 315.239 206.096C315.239 203.336 317.519 202.088 319.991 202.088C324.479 202.088 324.791 205.4 324.791 206.024ZM329.783 197.768V215H327.671V197.768H329.783ZM334.815 206.264H332.871C332.967 203.264 334.959 202.088 338.055 202.088C339.063 202.088 342.711 202.376 342.711 205.592V212.816C342.711 213.344 342.975 213.56 343.407 213.56C343.599 213.56 343.863 213.512 344.103 213.464V215C343.743 215.096 343.431 215.24 342.951 215.24C341.079 215.24 340.791 214.28 340.719 213.32C339.903 214.208 338.631 215.36 336.183 215.36C333.879 215.36 332.247 213.896 332.247 211.736C332.247 210.68 332.559 208.232 336.063 207.8L339.543 207.368C340.047 207.32 340.647 207.128 340.647 205.88C340.647 204.56 339.687 203.84 337.695 203.84C335.295 203.84 334.959 205.304 334.815 206.264ZM340.599 210.656V208.592C340.263 208.856 339.735 209.048 337.119 209.384C336.087 209.528 334.431 209.84 334.431 211.424C334.431 212.792 335.127 213.608 336.711 213.608C338.679 213.608 340.599 212.336 340.599 210.656ZM350.887 204.2H348.871V212.36C348.871 213.344 349.711 213.344 350.143 213.344H350.887V215C350.119 215.072 349.519 215.168 349.303 215.168C347.215 215.168 346.759 213.992 346.759 212.48V204.2H345.055V202.448H346.759V198.944H348.871V202.448H350.887V204.2ZM355.118 202.448V215H353.006V202.448H355.118ZM355.118 200.168H353.006V197.768H355.118V200.168ZM357.559 208.712C357.559 205.472 359.383 202.088 363.391 202.088C367.399 202.088 369.223 205.472 369.223 208.712C369.223 211.952 367.399 215.336 363.391 215.336C359.383 215.336 357.559 211.952 357.559 208.712ZM359.743 208.712C359.743 210.392 360.367 213.512 363.391 213.512C366.415 213.512 367.039 210.392 367.039 208.712C367.039 207.032 366.415 203.912 363.391 203.912C360.367 203.912 359.743 207.032 359.743 208.712ZM381.839 206.456V215H379.727V207.272C379.727 205.088 379.103 203.984 377.039 203.984C375.839 203.984 373.727 204.752 373.727 208.16V215H371.615V202.448H373.607V204.224H373.655C374.111 203.552 375.287 202.088 377.447 202.088C379.391 202.088 381.839 202.88 381.839 206.456ZM78.7967 256.384C78.7967 258.472 77.0927 260.152 75.0047 260.152C72.9167 260.152 71.2367 258.496 71.2367 256.384C71.2367 254.296 72.8927 252.592 75.0047 252.592C77.0927 252.592 78.7967 254.296 78.7967 256.384ZM103.08 261.448L104.256 260.008L106.44 261.712C107.664 260.488 108.336 258.592 108.336 256.384C108.336 252.328 106.08 249.376 102.336 249.376C98.592 249.376 96.336 252.328 96.336 256.384C96.336 260.44 98.592 263.392 102.336 263.392C103.296 263.392 104.16 263.2 104.88 262.84L103.08 261.448ZM110.592 264.952L109.416 266.344L106.776 264.304C105.648 265.024 104.16 265.456 102.336 265.456C95.904 265.456 93.936 260.104 93.936 256.384C93.936 252.664 95.904 247.312 102.336 247.312C108.768 247.312 110.736 252.664 110.736 256.384C110.736 258.568 110.064 261.28 108.24 263.128L110.592 264.952ZM123.416 265H121.424V263.176L121.376 263.128C120.488 264.592 119.408 265.36 117.392 265.36C115.544 265.36 113.312 264.472 113.312 261.472V252.448H115.424V260.776C115.424 262.84 116.48 263.536 117.848 263.536C120.512 263.536 121.304 261.184 121.304 259.36V252.448H123.416V265ZM128.448 256.264H126.504C126.6 253.264 128.592 252.088 131.688 252.088C132.696 252.088 136.344 252.376 136.344 255.592V262.816C136.344 263.344 136.608 263.56 137.04 263.56C137.232 263.56 137.496 263.512 137.736 263.464V265C137.376 265.096 137.064 265.24 136.584 265.24C134.712 265.24 134.424 264.28 134.352 263.32C133.536 264.208 132.264 265.36 129.816 265.36C127.512 265.36 125.88 263.896 125.88 261.736C125.88 260.68 126.192 258.232 129.696 257.8L133.176 257.368C133.68 257.32 134.28 257.128 134.28 255.88C134.28 254.56 133.32 253.84 131.328 253.84C128.928 253.84 128.592 255.304 128.448 256.264ZM134.232 260.656V258.592C133.896 258.856 133.368 259.048 130.752 259.384C129.72 259.528 128.064 259.84 128.064 261.424C128.064 262.792 128.76 263.608 130.344 263.608C132.312 263.608 134.232 262.336 134.232 260.656ZM142.072 247.768V265H139.96V247.768H142.072ZM147.392 252.448V265H145.28V252.448H147.392ZM147.392 250.168H145.28V247.768H147.392V250.168ZM155.16 254.2H153.144V262.36C153.144 263.344 153.984 263.344 154.416 263.344H155.16V265C154.392 265.072 153.792 265.168 153.576 265.168C151.488 265.168 151.032 263.992 151.032 262.48V254.2H149.328V252.448H151.032V248.944H153.144V252.448H155.16V254.2ZM161.72 262.672L165.08 252.448H167.408C165.944 256.552 164.504 260.656 162.896 264.76C160.904 269.848 160.688 270.136 157.976 270.136C157.664 270.136 157.424 270.04 157.088 269.944V268.024C157.352 268.12 157.784 268.24 158.36 268.24C159.464 268.24 159.584 267.928 160.592 265.336L155.936 252.448H158.336L161.672 262.672H161.72ZM178.864 247.768V265H176.536V247.768H178.864ZM182.591 265V252.448H184.583V254.224H184.631C185.087 253.552 186.167 252.088 188.423 252.088C190.679 252.088 191.399 253.456 191.759 254.128C192.815 252.952 193.655 252.088 195.599 252.088C196.943 252.088 199.487 252.784 199.487 256.312V265H197.375V256.888C197.375 255.16 196.847 253.984 195.047 253.984C193.271 253.984 192.095 255.664 192.095 257.344V265H189.983V256.312C189.983 255.256 189.575 253.984 188.015 253.984C186.815 253.984 184.703 254.752 184.703 258.16V265H182.591ZM204.431 259.312C204.431 262.648 206.519 263.536 207.863 263.536C210.167 263.536 211.247 261.448 211.247 258.688C211.247 257.08 211.079 253.984 207.815 253.984C204.767 253.984 204.431 257.272 204.431 259.312ZM202.415 269.968V252.448H204.407V254.224H204.455C204.959 253.504 205.919 252.088 208.199 252.088C211.535 252.088 213.431 254.824 213.431 258.352C213.431 261.352 212.183 265.36 207.911 265.36C206.231 265.36 205.127 264.568 204.575 263.68H204.527V269.968H202.415ZM218.319 257.704V265H216.207V252.448H218.199V254.536H218.247C219.087 253.072 220.191 252.088 221.775 252.088C222.039 252.088 222.159 252.112 222.327 252.16V254.344H221.535C219.567 254.344 218.319 255.88 218.319 257.704ZM223.192 258.712C223.192 255.472 225.016 252.088 229.024 252.088C233.032 252.088 234.856 255.472 234.856 258.712C234.856 261.952 233.032 265.336 229.024 265.336C225.016 265.336 223.192 261.952 223.192 258.712ZM225.376 258.712C225.376 260.392 226 263.512 229.024 263.512C232.048 263.512 232.672 260.392 232.672 258.712C232.672 257.032 232.048 253.912 229.024 253.912C226 253.912 225.376 257.032 225.376 258.712ZM241.288 262.672L244.84 252.448H247.144L242.368 265H240.112L235.528 252.448H237.976L241.24 262.672H241.288ZM256.831 261.064H258.943C258.871 261.664 258.295 263.44 256.711 264.496C256.135 264.88 255.319 265.36 253.303 265.36C249.775 265.36 247.687 262.696 247.687 259.072C247.687 255.184 249.559 252.088 253.711 252.088C257.335 252.088 259.111 254.968 259.111 259.408H249.943C249.943 262.024 251.167 263.536 253.591 263.536C255.583 263.536 256.759 262 256.831 261.064ZM249.943 257.728H256.927C256.807 255.784 255.991 253.984 253.423 253.984C251.479 253.984 249.943 255.784 249.943 257.728ZM261.623 265V252.448H263.615V254.224H263.663C264.119 253.552 265.199 252.088 267.455 252.088C269.711 252.088 270.431 253.456 270.791 254.128C271.847 252.952 272.687 252.088 274.631 252.088C275.975 252.088 278.519 252.784 278.519 256.312V265H276.407V256.888C276.407 255.16 275.879 253.984 274.079 253.984C272.303 253.984 271.127 255.664 271.127 257.344V265H269.015V256.312C269.015 255.256 268.607 253.984 267.047 253.984C265.847 253.984 263.735 254.752 263.735 258.16V265H261.623ZM290.159 261.064H292.271C292.199 261.664 291.623 263.44 290.039 264.496C289.463 264.88 288.647 265.36 286.631 265.36C283.103 265.36 281.015 262.696 281.015 259.072C281.015 255.184 282.887 252.088 287.039 252.088C290.663 252.088 292.439 254.968 292.439 259.408H283.271C283.271 262.024 284.495 263.536 286.919 263.536C288.911 263.536 290.087 262 290.159 261.064ZM283.271 257.728H290.255C290.135 255.784 289.319 253.984 286.751 253.984C284.807 253.984 283.271 255.784 283.271 257.728ZM305.175 256.456V265H303.063V257.272C303.063 255.088 302.439 253.984 300.375 253.984C299.175 253.984 297.063 254.752 297.063 258.16V265H294.951V252.448H296.943V254.224H296.991C297.447 253.552 298.623 252.088 300.783 252.088C302.727 252.088 305.175 252.88 305.175 256.456ZM312.895 254.2H310.879V262.36C310.879 263.344 311.719 263.344 312.151 263.344H312.895V265C312.127 265.072 311.527 265.168 311.311 265.168C309.223 265.168 308.767 263.992 308.767 262.48V254.2H307.063V252.448H308.767V248.944H310.879V252.448H312.895V254.2ZM320.926 258.712C320.926 255.472 322.75 252.088 326.758 252.088C330.766 252.088 332.59 255.472 332.59 258.712C332.59 261.952 330.766 265.336 326.758 265.336C322.75 265.336 320.926 261.952 320.926 258.712ZM323.11 258.712C323.11 260.392 323.734 263.512 326.758 263.512C329.782 263.512 330.406 260.392 330.406 258.712C330.406 257.032 329.782 253.912 326.758 253.912C323.734 253.912 323.11 257.032 323.11 258.712ZM339.71 254.2H337.598V265H335.486V254.2H333.758V252.448H335.486V250.288C335.486 248.392 336.686 247.528 338.75 247.528C339.062 247.528 339.374 247.552 339.71 247.576V249.472C339.446 249.448 339.11 249.424 338.846 249.424C337.934 249.424 337.598 249.88 337.598 250.888V252.448H339.71V254.2ZM350.933 247.768V262.936H359.669V265H348.605V247.768H350.933ZM360.957 258.712C360.957 255.472 362.781 252.088 366.789 252.088C370.797 252.088 372.621 255.472 372.621 258.712C372.621 261.952 370.797 265.336 366.789 265.336C362.781 265.336 360.957 261.952 360.957 258.712ZM363.141 258.712C363.141 260.392 363.765 263.512 366.789 263.512C369.813 263.512 370.437 260.392 370.437 258.712C370.437 257.032 369.813 253.912 366.789 253.912C363.765 253.912 363.141 257.032 363.141 258.712ZM381.694 255.28L379.246 265H377.062L373.438 252.448H375.742L378.142 262.312H378.19L380.614 252.448H382.966L385.414 262.312H385.462L388.006 252.448H390.118L386.47 265H384.286L381.742 255.28H381.694ZM397.358 257.272V259.432H391.478V257.272H397.358ZM402.566 247.768V262.936H411.302V265H400.238V247.768H402.566ZM415.47 252.448V265H413.358V252.448H415.47ZM415.47 250.168H413.358V247.768H415.47V250.168ZM420.214 258.688C420.214 261.448 421.294 263.536 423.598 263.536C424.942 263.536 427.03 262.648 427.03 259.312C427.03 257.272 426.694 253.984 423.646 253.984C420.382 253.984 420.214 257.08 420.214 258.688ZM429.046 252.448V263.968C429.046 265.768 429.022 270.28 423.214 270.28C421.726 270.28 418.822 269.872 418.414 266.536H420.526C420.91 268.528 422.854 268.528 423.358 268.528C427.006 268.528 426.934 265.6 426.934 264.112V263.584H426.886V263.68C426.334 264.568 425.23 265.36 423.55 265.36C419.278 265.36 418.03 261.352 418.03 258.352C418.03 254.824 419.926 252.088 423.262 252.088C425.542 252.088 426.502 253.504 427.006 254.224H427.054V252.448H429.046ZM442.19 256.456V265H440.078V256.792C440.078 255.088 439.598 253.984 437.582 253.984C435.854 253.984 434.078 254.992 434.078 258.16V265H431.966V247.768H434.078V254.128H434.126C434.726 253.336 435.782 252.088 437.798 252.088C439.742 252.088 442.19 252.88 442.19 256.456ZM449.91 254.2H447.894V262.36C447.894 263.344 448.734 263.344 449.166 263.344H449.91V265C449.142 265.072 448.542 265.168 448.326 265.168C446.238 265.168 445.782 263.992 445.782 262.48V254.2H444.078V252.448H445.782V248.944H447.894V252.448H449.91V254.2ZM461.614 247.768V265H459.286V247.768H461.614ZM465.341 265V252.448H467.333V254.224H467.381C467.837 253.552 468.917 252.088 471.173 252.088C473.429 252.088 474.149 253.456 474.509 254.128C475.565 252.952 476.405 252.088 478.349 252.088C479.693 252.088 482.237 252.784 482.237 256.312V265H480.125V256.888C480.125 255.16 479.597 253.984 477.797 253.984C476.021 253.984 474.845 255.664 474.845 257.344V265H472.733V256.312C472.733 255.256 472.325 253.984 470.765 253.984C469.565 253.984 467.453 254.752 467.453 258.16V265H465.341ZM487.205 256.264H485.261C485.357 253.264 487.349 252.088 490.445 252.088C491.453 252.088 495.101 252.376 495.101 255.592V262.816C495.101 263.344 495.365 263.56 495.797 263.56C495.989 263.56 496.253 263.512 496.493 263.464V265C496.133 265.096 495.821 265.24 495.341 265.24C493.469 265.24 493.181 264.28 493.109 263.32C492.293 264.208 491.021 265.36 488.573 265.36C486.269 265.36 484.637 263.896 484.637 261.736C484.637 260.68 484.949 258.232 488.453 257.8L491.933 257.368C492.437 257.32 493.037 257.128 493.037 255.88C493.037 254.56 492.077 253.84 490.085 253.84C487.685 253.84 487.349 255.304 487.205 256.264ZM492.989 260.656V258.592C492.653 258.856 492.125 259.048 489.509 259.384C488.477 259.528 486.821 259.84 486.821 261.424C486.821 262.792 487.517 263.608 489.101 263.608C491.069 263.608 492.989 262.336 492.989 260.656ZM500.253 258.688C500.253 261.448 501.333 263.536 503.637 263.536C504.981 263.536 507.069 262.648 507.069 259.312C507.069 257.272 506.733 253.984 503.685 253.984C500.421 253.984 500.253 257.08 500.253 258.688ZM509.085 252.448V263.968C509.085 265.768 509.061 270.28 503.253 270.28C501.765 270.28 498.861 269.872 498.453 266.536H500.565C500.949 268.528 502.893 268.528 503.397 268.528C507.045 268.528 506.973 265.6 506.973 264.112V263.584H506.925V263.68C506.373 264.568 505.269 265.36 503.589 265.36C499.317 265.36 498.069 261.352 498.069 258.352C498.069 254.824 499.965 252.088 503.301 252.088C505.581 252.088 506.541 253.504 507.045 254.224H507.093V252.448H509.085ZM520.549 261.064H522.661C522.589 261.664 522.013 263.44 520.429 264.496C519.853 264.88 519.037 265.36 517.021 265.36C513.493 265.36 511.405 262.696 511.405 259.072C511.405 255.184 513.277 252.088 517.429 252.088C521.053 252.088 522.829 254.968 522.829 259.408H513.661C513.661 262.024 514.885 263.536 517.309 263.536C519.301 263.536 520.477 262 520.549 261.064ZM513.661 257.728H520.645C520.525 255.784 519.709 253.984 517.141 253.984C515.197 253.984 513.661 255.784 513.661 257.728ZM534.509 256.024H532.469C532.445 255.232 532.157 253.912 529.493 253.912C528.845 253.912 526.997 254.128 526.997 255.688C526.997 256.72 527.645 256.96 529.277 257.368L531.389 257.896C534.005 258.544 534.917 259.504 534.917 261.208C534.917 263.8 532.781 265.36 529.949 265.36C524.981 265.36 524.621 262.48 524.549 260.968H526.589C526.661 261.952 526.949 263.536 529.925 263.536C531.437 263.536 532.805 262.936 532.805 261.544C532.805 260.536 532.109 260.2 530.309 259.744L527.861 259.144C526.109 258.712 524.957 257.824 524.957 256.096C524.957 253.336 527.237 252.088 529.709 252.088C534.197 252.088 534.509 255.4 534.509 256.024ZM78.7967 306.384C78.7967 308.472 77.0927 310.152 75.0047 310.152C72.9167 310.152 71.2367 308.496 71.2367 306.384C71.2367 304.296 72.8927 302.592 75.0047 302.592C77.0927 302.592 78.7967 304.296 78.7967 306.384ZM97.512 297.768V315H95.184V297.768H97.512ZM104.12 307.608V315H101.792V297.768H109.76C112.592 297.768 115.424 298.752 115.424 302.4C115.424 304.944 114.128 305.88 113.024 306.528C114.008 306.936 114.992 307.368 115.088 309.768L115.232 312.888C115.256 313.848 115.376 314.208 116.096 314.616V315H113.24C112.904 313.944 112.832 311.328 112.832 310.68C112.832 309.264 112.544 307.608 109.76 307.608H104.12ZM104.12 299.76V305.616H109.52C111.224 305.616 113.024 305.184 113.024 302.64C113.024 299.976 111.08 299.76 109.928 299.76H104.12ZM129.848 304.2H127.832V312.36C127.832 313.344 128.672 313.344 129.104 313.344H129.848V315C129.08 315.072 128.48 315.168 128.264 315.168C126.176 315.168 125.72 313.992 125.72 312.48V304.2H124.016V302.448H125.72V298.944H127.832V302.448H129.848V304.2ZM131.199 308.712C131.199 305.472 133.023 302.088 137.031 302.088C141.039 302.088 142.863 305.472 142.863 308.712C142.863 311.952 141.039 315.336 137.031 315.336C133.023 315.336 131.199 311.952 131.199 308.712ZM133.383 308.712C133.383 310.392 134.007 313.512 137.031 313.512C140.055 313.512 140.679 310.392 140.679 308.712C140.679 307.032 140.055 303.912 137.031 303.912C134.007 303.912 133.383 307.032 133.383 308.712ZM157.22 312.456L162.092 297.768H164.708L158.42 315H155.948L149.66 297.768H152.252L157.172 312.456H157.22ZM168.908 302.448V315H166.796V302.448H168.908ZM168.908 300.168H166.796V297.768H168.908V300.168ZM181.236 306.024H179.196C179.172 305.232 178.884 303.912 176.22 303.912C175.572 303.912 173.724 304.128 173.724 305.688C173.724 306.72 174.372 306.96 176.004 307.368L178.116 307.896C180.732 308.544 181.644 309.504 181.644 311.208C181.644 313.8 179.508 315.36 176.676 315.36C171.708 315.36 171.348 312.48 171.276 310.968H173.316C173.388 311.952 173.676 313.536 176.652 313.536C178.164 313.536 179.532 312.936 179.532 311.544C179.532 310.536 178.836 310.2 177.036 309.744L174.588 309.144C172.836 308.712 171.684 307.824 171.684 306.096C171.684 303.336 173.964 302.088 176.436 302.088C180.924 302.088 181.236 305.4 181.236 306.024ZM186.228 302.448V315H184.116V302.448H186.228ZM186.228 300.168H184.116V297.768H186.228V300.168ZM191.212 315H189.22V297.768H191.332V304.032H191.38C192.292 302.712 193.54 302.112 195.004 302.088C198.34 302.088 200.236 304.824 200.236 308.352C200.236 311.352 198.988 315.36 194.716 315.36C192.58 315.36 191.692 314.136 191.26 313.44H191.212V315ZM198.052 308.688C198.052 307.08 197.884 303.984 194.62 303.984C191.572 303.984 191.236 307.272 191.236 309.312C191.236 312.648 193.324 313.536 194.668 313.536C196.972 313.536 198.052 311.448 198.052 308.688ZM204.415 297.768V315H202.303V297.768H204.415ZM216.12 311.064H218.232C218.16 311.664 217.584 313.44 216 314.496C215.424 314.88 214.608 315.36 212.592 315.36C209.064 315.36 206.976 312.696 206.976 309.072C206.976 305.184 208.848 302.088 213 302.088C216.624 302.088 218.4 304.968 218.4 309.408H209.232C209.232 312.024 210.456 313.536 212.88 313.536C214.872 313.536 216.048 312 216.12 311.064ZM209.232 307.728H216.216C216.096 305.784 215.28 303.984 212.712 303.984C210.768 303.984 209.232 305.784 209.232 307.728ZM242.207 302.952H239.951C239.303 299.928 236.783 299.376 235.127 299.376C232.007 299.376 229.487 301.68 229.487 306.216C229.487 310.272 230.927 313.392 235.199 313.392C236.711 313.392 239.327 312.672 240.119 308.664H242.375C241.415 315.168 236.135 315.456 234.839 315.456C230.927 315.456 227.087 312.912 227.087 306.288C227.087 300.984 230.111 297.312 235.127 297.312C239.567 297.312 241.871 300.072 242.207 302.952ZM244.192 308.712C244.192 305.472 246.016 302.088 250.024 302.088C254.032 302.088 255.856 305.472 255.856 308.712C255.856 311.952 254.032 315.336 250.024 315.336C246.016 315.336 244.192 311.952 244.192 308.712ZM246.376 308.712C246.376 310.392 247 313.512 250.024 313.512C253.048 313.512 253.672 310.392 253.672 308.712C253.672 307.032 253.048 303.912 250.024 303.912C247 303.912 246.376 307.032 246.376 308.712ZM268.472 306.456V315H266.36V307.272C266.36 305.088 265.736 303.984 263.672 303.984C262.472 303.984 260.36 304.752 260.36 308.16V315H258.248V302.448H260.24V304.224H260.288C260.744 303.552 261.92 302.088 264.08 302.088C266.024 302.088 268.472 302.88 268.472 306.456ZM275.507 312.672L279.059 302.448H281.363L276.587 315H274.331L269.747 302.448H272.195L275.459 312.672H275.507ZM291.049 311.064H293.161C293.089 311.664 292.513 313.44 290.929 314.496C290.353 314.88 289.537 315.36 287.521 315.36C283.993 315.36 281.905 312.696 281.905 309.072C281.905 305.184 283.777 302.088 287.929 302.088C291.553 302.088 293.329 304.968 293.329 309.408H284.161C284.161 312.024 285.385 313.536 287.809 313.536C289.801 313.536 290.977 312 291.049 311.064ZM284.161 307.728H291.145C291.025 305.784 290.209 303.984 287.641 303.984C285.697 303.984 284.161 305.784 284.161 307.728ZM298.241 307.704V315H296.129V302.448H298.121V304.536H298.169C299.009 303.072 300.113 302.088 301.697 302.088C301.961 302.088 302.081 302.112 302.249 302.16V304.344H301.457C299.489 304.344 298.241 305.88 298.241 307.704ZM313.001 306.024H310.961C310.937 305.232 310.649 303.912 307.985 303.912C307.337 303.912 305.489 304.128 305.489 305.688C305.489 306.72 306.137 306.96 307.769 307.368L309.881 307.896C312.497 308.544 313.409 309.504 313.409 311.208C313.409 313.8 311.273 315.36 308.441 315.36C303.473 315.36 303.113 312.48 303.041 310.968H305.081C305.153 311.952 305.441 313.536 308.417 313.536C309.929 313.536 311.297 312.936 311.297 311.544C311.297 310.536 310.601 310.2 308.801 309.744L306.353 309.144C304.601 308.712 303.449 307.824 303.449 306.096C303.449 303.336 305.729 302.088 308.201 302.088C312.689 302.088 313.001 305.4 313.001 306.024ZM317.993 302.448V315H315.881V302.448H317.993ZM317.993 300.168H315.881V297.768H317.993V300.168ZM320.434 308.712C320.434 305.472 322.258 302.088 326.266 302.088C330.274 302.088 332.098 305.472 332.098 308.712C332.098 311.952 330.274 315.336 326.266 315.336C322.258 315.336 320.434 311.952 320.434 308.712ZM322.618 308.712C322.618 310.392 323.242 313.512 326.266 313.512C329.29 313.512 329.914 310.392 329.914 308.712C329.914 307.032 329.29 303.912 326.266 303.912C323.242 303.912 322.618 307.032 322.618 308.712ZM344.714 306.456V315H342.602V307.272C342.602 305.088 341.978 303.984 339.914 303.984C338.714 303.984 336.602 304.752 336.602 308.16V315H334.49V302.448H336.482V304.224H336.53C336.986 303.552 338.162 302.088 340.322 302.088C342.266 302.088 344.714 302.88 344.714 306.456ZM351.522 312.456V315H349.026V312.456H351.522ZM359.514 312.456V315H357.018V312.456H359.514ZM367.506 312.456V315H365.01V312.456H367.506Z" fill="black"/>
<path d="M740 304.999L731 295.999L733.9 293.099L740 299.199L746.1 293.099L749 295.999L740 304.999ZM733.9 281.099L731 278.199L740 269.199L749 278.199L746.1 281.099L740 274.999L733.9 281.099Z" fill="#00949E"/>
</svg>
